<mxfile host="app.diagrams.net" modified="2023-11-14T11:53:21.551Z" agent="Mozilla/5.0 (Windows NT 10.0; Win64; x64) AppleWebKit/537.36 (KHTML, like Gecko) Chrome/119.0.0.0 Safari/537.36" etag="CcelUC24wA1s8AZnHLPw" version="22.1.0" type="device" pages="3">
  <diagram id="C5RBs43oDa-KdzZeNtuy" name="main.cpp">
    <mxGraphModel dx="934" dy="1237" grid="1" gridSize="10" guides="1" tooltips="1" connect="1" arrows="1" fold="1" page="1" pageScale="1" pageWidth="827" pageHeight="1169" math="0" shadow="0">
      <root>
        <mxCell id="WIyWlLk6GJQsqaUBKTNV-0" />
        <mxCell id="WIyWlLk6GJQsqaUBKTNV-1" parent="WIyWlLk6GJQsqaUBKTNV-0" />
        <mxCell id="gqeSdixQSgTwtnbH9iBB-2" value="" style="edgeStyle=orthogonalEdgeStyle;rounded=0;orthogonalLoop=1;jettySize=auto;html=1;" parent="WIyWlLk6GJQsqaUBKTNV-1" source="gqeSdixQSgTwtnbH9iBB-0" target="gqeSdixQSgTwtnbH9iBB-1" edge="1">
          <mxGeometry relative="1" as="geometry" />
        </mxCell>
        <mxCell id="gqeSdixQSgTwtnbH9iBB-0" value="start" style="strokeWidth=2;html=1;shape=mxgraph.flowchart.terminator;whiteSpace=wrap;" parent="WIyWlLk6GJQsqaUBKTNV-1" vertex="1">
          <mxGeometry x="313" y="150" width="100" height="60" as="geometry" />
        </mxCell>
        <mxCell id="gqeSdixQSgTwtnbH9iBB-4" value="" style="edgeStyle=orthogonalEdgeStyle;rounded=0;orthogonalLoop=1;jettySize=auto;html=1;" parent="WIyWlLk6GJQsqaUBKTNV-1" source="gqeSdixQSgTwtnbH9iBB-1" target="gqeSdixQSgTwtnbH9iBB-3" edge="1">
          <mxGeometry relative="1" as="geometry" />
        </mxCell>
        <mxCell id="gqeSdixQSgTwtnbH9iBB-1" value="Manager class인&lt;br&gt;manager(3) 생성" style="rounded=0;whiteSpace=wrap;html=1;" parent="WIyWlLk6GJQsqaUBKTNV-1" vertex="1">
          <mxGeometry x="284.5" y="230" width="157" height="50" as="geometry" />
        </mxCell>
        <mxCell id="gqeSdixQSgTwtnbH9iBB-6" value="" style="edgeStyle=orthogonalEdgeStyle;rounded=0;orthogonalLoop=1;jettySize=auto;html=1;" parent="WIyWlLk6GJQsqaUBKTNV-1" source="gqeSdixQSgTwtnbH9iBB-3" target="gqeSdixQSgTwtnbH9iBB-5" edge="1">
          <mxGeometry relative="1" as="geometry" />
        </mxCell>
        <mxCell id="gqeSdixQSgTwtnbH9iBB-3" value="Manager class의 run(command.txt) 함수 실행" style="rounded=0;whiteSpace=wrap;html=1;" parent="WIyWlLk6GJQsqaUBKTNV-1" vertex="1">
          <mxGeometry x="284.5" y="300" width="157" height="50" as="geometry" />
        </mxCell>
        <mxCell id="gqeSdixQSgTwtnbH9iBB-5" value="end" style="strokeWidth=2;html=1;shape=mxgraph.flowchart.terminator;whiteSpace=wrap;" parent="WIyWlLk6GJQsqaUBKTNV-1" vertex="1">
          <mxGeometry x="313" y="380" width="100" height="60" as="geometry" />
        </mxCell>
      </root>
    </mxGraphModel>
  </diagram>
  <diagram id="mRipLY0cucPsHm-r0Gve" name="manager.cpp">
    <mxGraphModel dx="778" dy="1031" grid="1" gridSize="10" guides="1" tooltips="1" connect="1" arrows="1" fold="1" page="1" pageScale="1" pageWidth="1100" pageHeight="850" math="0" shadow="0">
      <root>
        <mxCell id="0" />
        <mxCell id="1" parent="0" />
        <mxCell id="7FsS_8g6NK_ldsd2cw5r-3" value="void run&lt;br style=&quot;font-size: 9px;&quot;&gt;(const char* command)&amp;nbsp;" style="strokeWidth=2;html=1;shape=mxgraph.flowchart.terminator;whiteSpace=wrap;fontSize=9;" parent="1" vertex="1">
          <mxGeometry x="178.3050847457627" y="10" width="130.16949152542372" height="44.943820224719104" as="geometry" />
        </mxCell>
        <mxCell id="7FsS_8g6NK_ldsd2cw5r-4" value="fin.open(command)" style="shape=document;whiteSpace=wrap;html=1;boundedLbl=1;fontSize=9;" parent="1" vertex="1">
          <mxGeometry x="194.57627118644066" y="81.91011235955055" width="97.62711864406779" height="44.943820224719104" as="geometry" />
        </mxCell>
        <mxCell id="7FsS_8g6NK_ldsd2cw5r-5" value="" style="edgeStyle=orthogonalEdgeStyle;rounded=0;orthogonalLoop=1;jettySize=auto;html=1;fontSize=9;" parent="1" source="7FsS_8g6NK_ldsd2cw5r-3" target="7FsS_8g6NK_ldsd2cw5r-4" edge="1">
          <mxGeometry relative="1" as="geometry" />
        </mxCell>
        <mxCell id="7FsS_8g6NK_ldsd2cw5r-6" value="fin is open?" style="rhombus;whiteSpace=wrap;html=1;fontSize=9;" parent="1" vertex="1">
          <mxGeometry x="210.84745762711864" y="153.8202247191011" width="65.08474576271186" height="71.91011235955055" as="geometry" />
        </mxCell>
        <mxCell id="7FsS_8g6NK_ldsd2cw5r-7" value="" style="edgeStyle=orthogonalEdgeStyle;rounded=0;orthogonalLoop=1;jettySize=auto;html=1;fontSize=9;" parent="1" source="7FsS_8g6NK_ldsd2cw5r-4" target="7FsS_8g6NK_ldsd2cw5r-6" edge="1">
          <mxGeometry relative="1" as="geometry" />
        </mxCell>
        <mxCell id="7FsS_8g6NK_ldsd2cw5r-8" value="File open Error 출력" style="rounded=0;whiteSpace=wrap;html=1;fontSize=9;" parent="1" vertex="1">
          <mxGeometry x="56.271186440677965" y="162.80898876404493" width="97.62711864406779" height="53.93258426966292" as="geometry" />
        </mxCell>
        <mxCell id="7FsS_8g6NK_ldsd2cw5r-9" value="no" style="edgeStyle=orthogonalEdgeStyle;rounded=0;orthogonalLoop=1;jettySize=auto;html=1;fontSize=9;" parent="1" source="7FsS_8g6NK_ldsd2cw5r-6" target="7FsS_8g6NK_ldsd2cw5r-8" edge="1">
          <mxGeometry relative="1" as="geometry" />
        </mxCell>
        <mxCell id="7FsS_8g6NK_ldsd2cw5r-10" value="end" style="strokeWidth=2;html=1;shape=mxgraph.flowchart.terminator;whiteSpace=wrap;fontSize=9;" parent="1" vertex="1">
          <mxGeometry x="64.41" y="567.3" width="81.36" height="42.7" as="geometry" />
        </mxCell>
        <mxCell id="7FsS_8g6NK_ldsd2cw5r-12" value="&lt;div style=&quot;font-size: 9px;&quot;&gt;bptree = new BpTree(&amp;amp;flog, bpOrder);&lt;/div&gt;&lt;div style=&quot;font-size: 9px;&quot;&gt;stree = new SelectionTree(&amp;amp;flog);&lt;span style=&quot;font-size: 9px;&quot;&gt;&lt;/span&gt;&lt;/div&gt;" style="rounded=0;whiteSpace=wrap;html=1;fontSize=9;" parent="1" vertex="1">
          <mxGeometry x="153.89830508474574" y="266.1797752808989" width="178.98305084745763" height="49.43820224719101" as="geometry" />
        </mxCell>
        <mxCell id="7FsS_8g6NK_ldsd2cw5r-13" value="yes" style="edgeStyle=orthogonalEdgeStyle;rounded=0;orthogonalLoop=1;jettySize=auto;html=1;fontSize=9;" parent="1" source="7FsS_8g6NK_ldsd2cw5r-6" target="7FsS_8g6NK_ldsd2cw5r-12" edge="1">
          <mxGeometry relative="1" as="geometry" />
        </mxCell>
        <mxCell id="7FsS_8g6NK_ldsd2cw5r-14" value="fin is eof?" style="rhombus;whiteSpace=wrap;html=1;fontSize=9;" parent="1" vertex="1">
          <mxGeometry x="210.84745762711864" y="351.5730337078652" width="65.08474576271186" height="71.91011235955055" as="geometry" />
        </mxCell>
        <mxCell id="7FsS_8g6NK_ldsd2cw5r-15" value="" style="edgeStyle=orthogonalEdgeStyle;rounded=0;orthogonalLoop=1;jettySize=auto;html=1;fontSize=9;" parent="1" source="7FsS_8g6NK_ldsd2cw5r-12" target="7FsS_8g6NK_ldsd2cw5r-14" edge="1">
          <mxGeometry relative="1" as="geometry" />
        </mxCell>
        <mxCell id="7FsS_8g6NK_ldsd2cw5r-55" style="edgeStyle=orthogonalEdgeStyle;rounded=0;orthogonalLoop=1;jettySize=auto;html=1;" parent="1" source="7FsS_8g6NK_ldsd2cw5r-16" target="7FsS_8g6NK_ldsd2cw5r-18" edge="1">
          <mxGeometry relative="1" as="geometry" />
        </mxCell>
        <mxCell id="7FsS_8g6NK_ldsd2cw5r-16" value="fin.close()" style="rounded=0;whiteSpace=wrap;html=1;fontSize=9;" parent="1" vertex="1">
          <mxGeometry x="56.271186440677965" y="360.56179775280896" width="97.62711864406779" height="53.93258426966292" as="geometry" />
        </mxCell>
        <mxCell id="7FsS_8g6NK_ldsd2cw5r-17" value="yes" style="edgeStyle=orthogonalEdgeStyle;rounded=0;orthogonalLoop=1;jettySize=auto;html=1;fontSize=9;" parent="1" source="7FsS_8g6NK_ldsd2cw5r-14" target="7FsS_8g6NK_ldsd2cw5r-16" edge="1">
          <mxGeometry relative="1" as="geometry" />
        </mxCell>
        <mxCell id="7FsS_8g6NK_ldsd2cw5r-18" value="" style="shape=waypoint;sketch=0;size=6;pointerEvents=1;points=[];fillColor=default;resizable=0;rotatable=0;perimeter=centerPerimeter;snapToPoint=1;rounded=0;fontSize=9;" parent="1" vertex="1">
          <mxGeometry x="95.08915254237287" y="510.00449438202253" width="20" height="20" as="geometry" />
        </mxCell>
        <mxCell id="7FsS_8g6NK_ldsd2cw5r-21" value="is command LOAD?" style="rhombus;whiteSpace=wrap;html=1;fontSize=9;" parent="1" vertex="1">
          <mxGeometry x="308.47457627118644" y="351.5730337078652" width="65.08474576271186" height="71.91011235955055" as="geometry" />
        </mxCell>
        <mxCell id="7FsS_8g6NK_ldsd2cw5r-22" value="no" style="edgeStyle=orthogonalEdgeStyle;rounded=0;orthogonalLoop=1;jettySize=auto;html=1;fontSize=9;" parent="1" source="7FsS_8g6NK_ldsd2cw5r-14" target="7FsS_8g6NK_ldsd2cw5r-21" edge="1">
          <mxGeometry relative="1" as="geometry" />
        </mxCell>
        <mxCell id="7FsS_8g6NK_ldsd2cw5r-23" value="is command ADD?" style="rhombus;whiteSpace=wrap;html=1;fontSize=9;" parent="1" vertex="1">
          <mxGeometry x="406.10169491525426" y="351.5730337078652" width="65.08474576271186" height="71.91011235955055" as="geometry" />
        </mxCell>
        <mxCell id="7FsS_8g6NK_ldsd2cw5r-24" value="no" style="edgeStyle=orthogonalEdgeStyle;rounded=0;orthogonalLoop=1;jettySize=auto;html=1;fontSize=9;" parent="1" source="7FsS_8g6NK_ldsd2cw5r-21" target="7FsS_8g6NK_ldsd2cw5r-23" edge="1">
          <mxGeometry relative="1" as="geometry" />
        </mxCell>
        <mxCell id="7FsS_8g6NK_ldsd2cw5r-25" value="is command &lt;br style=&quot;font-size: 9px;&quot;&gt;SEARCH_BP?" style="rhombus;whiteSpace=wrap;html=1;fontSize=9;" parent="1" vertex="1">
          <mxGeometry x="210.84745762711864" y="504.3820224719101" width="65.08474576271186" height="71.91011235955055" as="geometry" />
        </mxCell>
        <mxCell id="7FsS_8g6NK_ldsd2cw5r-30" value="no" style="edgeStyle=orthogonalEdgeStyle;rounded=0;orthogonalLoop=1;jettySize=auto;html=1;entryX=0;entryY=0.5;entryDx=0;entryDy=0;exitX=1;exitY=0.5;exitDx=0;exitDy=0;fontSize=9;" parent="1" source="7FsS_8g6NK_ldsd2cw5r-23" target="7FsS_8g6NK_ldsd2cw5r-25" edge="1">
          <mxGeometry relative="1" as="geometry">
            <Array as="points">
              <mxPoint x="495.59322033898303" y="387.5280898876404" />
              <mxPoint x="495.59322033898303" y="495.39325842696627" />
              <mxPoint x="194.57627118644066" y="495.39325842696627" />
              <mxPoint x="194.57627118644066" y="540.3370786516855" />
            </Array>
          </mxGeometry>
        </mxCell>
        <mxCell id="7FsS_8g6NK_ldsd2cw5r-26" value="is command &lt;br style=&quot;font-size: 9px;&quot;&gt;PRINT_BP?" style="rhombus;whiteSpace=wrap;html=1;fontSize=9;" parent="1" vertex="1">
          <mxGeometry x="308.47457627118644" y="504.3820224719101" width="65.08474576271186" height="71.91011235955055" as="geometry" />
        </mxCell>
        <mxCell id="7FsS_8g6NK_ldsd2cw5r-31" value="no" style="edgeStyle=orthogonalEdgeStyle;rounded=0;orthogonalLoop=1;jettySize=auto;html=1;fontSize=9;" parent="1" source="7FsS_8g6NK_ldsd2cw5r-25" target="7FsS_8g6NK_ldsd2cw5r-26" edge="1">
          <mxGeometry relative="1" as="geometry" />
        </mxCell>
        <mxCell id="7FsS_8g6NK_ldsd2cw5r-27" value="is command &lt;br style=&quot;font-size: 9px;&quot;&gt;PRINT_ST?" style="rhombus;whiteSpace=wrap;html=1;fontSize=9;" parent="1" vertex="1">
          <mxGeometry x="406.10169491525426" y="504.3820224719101" width="65.08474576271186" height="71.91011235955055" as="geometry" />
        </mxCell>
        <mxCell id="7FsS_8g6NK_ldsd2cw5r-32" value="no" style="edgeStyle=orthogonalEdgeStyle;rounded=0;orthogonalLoop=1;jettySize=auto;html=1;fontSize=9;" parent="1" source="7FsS_8g6NK_ldsd2cw5r-26" target="7FsS_8g6NK_ldsd2cw5r-27" edge="1">
          <mxGeometry relative="1" as="geometry" />
        </mxCell>
        <mxCell id="7FsS_8g6NK_ldsd2cw5r-62" value="yes" style="edgeStyle=orthogonalEdgeStyle;rounded=0;orthogonalLoop=1;jettySize=auto;html=1;fontSize=9;" parent="1" source="7FsS_8g6NK_ldsd2cw5r-28" target="7FsS_8g6NK_ldsd2cw5r-61" edge="1">
          <mxGeometry relative="1" as="geometry" />
        </mxCell>
        <mxCell id="7FsS_8g6NK_ldsd2cw5r-28" value="is command &lt;br style=&quot;font-size: 9px;&quot;&gt;EXIT?" style="rhombus;whiteSpace=wrap;html=1;fontSize=9;" parent="1" vertex="1">
          <mxGeometry x="316.6101694915254" y="684.1573033707865" width="65.08474576271186" height="71.91011235955055" as="geometry" />
        </mxCell>
        <mxCell id="7FsS_8g6NK_ldsd2cw5r-34" value="no" style="edgeStyle=orthogonalEdgeStyle;rounded=0;orthogonalLoop=1;jettySize=auto;html=1;fontSize=9;" parent="1" source="7FsS_8g6NK_ldsd2cw5r-29" target="7FsS_8g6NK_ldsd2cw5r-28" edge="1">
          <mxGeometry relative="1" as="geometry" />
        </mxCell>
        <mxCell id="7FsS_8g6NK_ldsd2cw5r-29" value="is command &lt;br style=&quot;font-size: 9px;&quot;&gt;DELETE?" style="rhombus;whiteSpace=wrap;html=1;fontSize=9;" parent="1" vertex="1">
          <mxGeometry x="218.98305084745763" y="684.1573033707865" width="65.08474576271186" height="71.91011235955055" as="geometry" />
        </mxCell>
        <mxCell id="7FsS_8g6NK_ldsd2cw5r-33" value="no" style="edgeStyle=orthogonalEdgeStyle;rounded=0;orthogonalLoop=1;jettySize=auto;html=1;entryX=0;entryY=0.5;entryDx=0;entryDy=0;exitX=1;exitY=0.5;exitDx=0;exitDy=0;fontSize=9;" parent="1" source="7FsS_8g6NK_ldsd2cw5r-27" target="7FsS_8g6NK_ldsd2cw5r-29" edge="1">
          <mxGeometry relative="1" as="geometry">
            <Array as="points">
              <mxPoint x="495.59322033898303" y="540.3370786516855" />
              <mxPoint x="495.59322033898303" y="675.1685393258427" />
              <mxPoint x="194.57627118644066" y="675.1685393258427" />
              <mxPoint x="194.57627118644066" y="720.1123595505618" />
            </Array>
          </mxGeometry>
        </mxCell>
        <mxCell id="7FsS_8g6NK_ldsd2cw5r-36" value="" style="shape=waypoint;sketch=0;size=6;pointerEvents=1;points=[];fillColor=default;resizable=0;rotatable=0;perimeter=centerPerimeter;snapToPoint=1;fontSize=9;" parent="1" vertex="1">
          <mxGeometry x="235.25423728813558" y="320.11235955056173" width="20" height="20" as="geometry" />
        </mxCell>
        <mxCell id="7FsS_8g6NK_ldsd2cw5r-37" value="no" style="edgeStyle=orthogonalEdgeStyle;rounded=0;orthogonalLoop=1;jettySize=auto;html=1;fontSize=9;" parent="1" source="7FsS_8g6NK_ldsd2cw5r-28" target="7FsS_8g6NK_ldsd2cw5r-36" edge="1">
          <mxGeometry x="-0.9195" relative="1" as="geometry">
            <Array as="points">
              <mxPoint x="520" y="720.1123595505618" />
              <mxPoint x="520" y="329.1011235955056" />
            </Array>
            <mxPoint as="offset" />
          </mxGeometry>
        </mxCell>
        <mxCell id="7FsS_8g6NK_ldsd2cw5r-56" style="edgeStyle=orthogonalEdgeStyle;rounded=0;orthogonalLoop=1;jettySize=auto;html=1;" parent="1" source="7FsS_8g6NK_ldsd2cw5r-38" edge="1">
          <mxGeometry relative="1" as="geometry">
            <mxPoint x="520.5050659179688" y="480" as="targetPoint" />
            <Array as="points">
              <mxPoint x="341" y="480" />
            </Array>
          </mxGeometry>
        </mxCell>
        <mxCell id="7FsS_8g6NK_ldsd2cw5r-38" value="LOAD()" style="rounded=0;whiteSpace=wrap;html=1;fontSize=9;" parent="1" vertex="1">
          <mxGeometry x="312.54237288135596" y="445.00067415730337" width="56.94915254237288" height="26.96629213483146" as="geometry" />
        </mxCell>
        <mxCell id="7FsS_8g6NK_ldsd2cw5r-39" value="yes" style="edgeStyle=orthogonalEdgeStyle;rounded=0;orthogonalLoop=1;jettySize=auto;html=1;fontSize=9;" parent="1" source="7FsS_8g6NK_ldsd2cw5r-21" target="7FsS_8g6NK_ldsd2cw5r-38" edge="1">
          <mxGeometry relative="1" as="geometry" />
        </mxCell>
        <mxCell id="7FsS_8g6NK_ldsd2cw5r-57" style="edgeStyle=orthogonalEdgeStyle;rounded=0;orthogonalLoop=1;jettySize=auto;html=1;exitX=0.5;exitY=1;exitDx=0;exitDy=0;" parent="1" source="7FsS_8g6NK_ldsd2cw5r-40" edge="1">
          <mxGeometry relative="1" as="geometry">
            <mxPoint x="520" y="480" as="targetPoint" />
            <Array as="points">
              <mxPoint x="439" y="480" />
            </Array>
          </mxGeometry>
        </mxCell>
        <mxCell id="7FsS_8g6NK_ldsd2cw5r-40" value="ADD()" style="rounded=0;whiteSpace=wrap;html=1;fontSize=9;" parent="1" vertex="1">
          <mxGeometry x="410.1694915254237" y="445.00067415730337" width="56.94915254237288" height="26.96629213483146" as="geometry" />
        </mxCell>
        <mxCell id="7FsS_8g6NK_ldsd2cw5r-41" value="yes" style="edgeStyle=orthogonalEdgeStyle;rounded=0;orthogonalLoop=1;jettySize=auto;html=1;fontSize=9;" parent="1" source="7FsS_8g6NK_ldsd2cw5r-23" target="7FsS_8g6NK_ldsd2cw5r-40" edge="1">
          <mxGeometry relative="1" as="geometry" />
        </mxCell>
        <mxCell id="7FsS_8g6NK_ldsd2cw5r-58" style="edgeStyle=orthogonalEdgeStyle;rounded=0;orthogonalLoop=1;jettySize=auto;html=1;exitX=0.5;exitY=1;exitDx=0;exitDy=0;" parent="1" source="7FsS_8g6NK_ldsd2cw5r-42" edge="1">
          <mxGeometry relative="1" as="geometry">
            <mxPoint x="520" y="650" as="targetPoint" />
            <Array as="points">
              <mxPoint x="243" y="650" />
              <mxPoint x="520" y="650" />
            </Array>
          </mxGeometry>
        </mxCell>
        <mxCell id="7FsS_8g6NK_ldsd2cw5r-42" value="SEARCH_BP()" style="rounded=0;whiteSpace=wrap;html=1;fontSize=9;" parent="1" vertex="1">
          <mxGeometry x="204.74576271186442" y="599.9996629213483" width="77.28813559322033" height="26.96629213483146" as="geometry" />
        </mxCell>
        <mxCell id="7FsS_8g6NK_ldsd2cw5r-44" value="yes" style="edgeStyle=orthogonalEdgeStyle;rounded=0;orthogonalLoop=1;jettySize=auto;html=1;fontSize=9;" parent="1" source="7FsS_8g6NK_ldsd2cw5r-25" target="7FsS_8g6NK_ldsd2cw5r-42" edge="1">
          <mxGeometry relative="1" as="geometry" />
        </mxCell>
        <mxCell id="7FsS_8g6NK_ldsd2cw5r-59" style="edgeStyle=orthogonalEdgeStyle;rounded=0;orthogonalLoop=1;jettySize=auto;html=1;exitX=0.5;exitY=1;exitDx=0;exitDy=0;" parent="1" source="7FsS_8g6NK_ldsd2cw5r-45" edge="1">
          <mxGeometry relative="1" as="geometry">
            <mxPoint x="520" y="650" as="targetPoint" />
            <Array as="points">
              <mxPoint x="341" y="650" />
            </Array>
          </mxGeometry>
        </mxCell>
        <mxCell id="7FsS_8g6NK_ldsd2cw5r-45" value="PRINT_BP()" style="rounded=0;whiteSpace=wrap;html=1;fontSize=9;" parent="1" vertex="1">
          <mxGeometry x="302.3728813559322" y="599.9996629213483" width="77.28813559322033" height="26.96629213483146" as="geometry" />
        </mxCell>
        <mxCell id="7FsS_8g6NK_ldsd2cw5r-46" value="yes" style="edgeStyle=orthogonalEdgeStyle;rounded=0;orthogonalLoop=1;jettySize=auto;html=1;fontSize=9;" parent="1" source="7FsS_8g6NK_ldsd2cw5r-26" target="7FsS_8g6NK_ldsd2cw5r-45" edge="1">
          <mxGeometry relative="1" as="geometry" />
        </mxCell>
        <mxCell id="7FsS_8g6NK_ldsd2cw5r-60" style="edgeStyle=orthogonalEdgeStyle;rounded=0;orthogonalLoop=1;jettySize=auto;html=1;exitX=0.5;exitY=1;exitDx=0;exitDy=0;" parent="1" source="7FsS_8g6NK_ldsd2cw5r-47" edge="1">
          <mxGeometry relative="1" as="geometry">
            <mxPoint x="520" y="650" as="targetPoint" />
            <Array as="points">
              <mxPoint x="439" y="650" />
            </Array>
          </mxGeometry>
        </mxCell>
        <mxCell id="7FsS_8g6NK_ldsd2cw5r-47" value="PRINT_ST()" style="rounded=0;whiteSpace=wrap;html=1;fontSize=9;" parent="1" vertex="1">
          <mxGeometry x="400" y="599.9996629213483" width="77.28813559322033" height="26.96629213483146" as="geometry" />
        </mxCell>
        <mxCell id="7FsS_8g6NK_ldsd2cw5r-48" value="yes" style="edgeStyle=orthogonalEdgeStyle;rounded=0;orthogonalLoop=1;jettySize=auto;html=1;fontSize=9;" parent="1" source="7FsS_8g6NK_ldsd2cw5r-27" target="7FsS_8g6NK_ldsd2cw5r-47" edge="1">
          <mxGeometry relative="1" as="geometry" />
        </mxCell>
        <mxCell id="7FsS_8g6NK_ldsd2cw5r-63" style="edgeStyle=orthogonalEdgeStyle;rounded=0;orthogonalLoop=1;jettySize=auto;html=1;" parent="1" source="7FsS_8g6NK_ldsd2cw5r-49" edge="1">
          <mxGeometry relative="1" as="geometry">
            <mxPoint x="519.9999999999999" y="720" as="targetPoint" />
            <Array as="points">
              <mxPoint x="252" y="820" />
              <mxPoint x="520" y="820" />
            </Array>
          </mxGeometry>
        </mxCell>
        <mxCell id="7FsS_8g6NK_ldsd2cw5r-49" value="DELETE()" style="rounded=0;whiteSpace=wrap;html=1;fontSize=9;" parent="1" vertex="1">
          <mxGeometry x="212.88135593220338" y="783.0337078651685" width="77.28813559322033" height="26.96629213483146" as="geometry" />
        </mxCell>
        <mxCell id="7FsS_8g6NK_ldsd2cw5r-51" value="yes" style="edgeStyle=orthogonalEdgeStyle;rounded=0;orthogonalLoop=1;jettySize=auto;html=1;fontSize=9;" parent="1" source="7FsS_8g6NK_ldsd2cw5r-29" target="7FsS_8g6NK_ldsd2cw5r-49" edge="1">
          <mxGeometry relative="1" as="geometry" />
        </mxCell>
        <mxCell id="7FsS_8g6NK_ldsd2cw5r-53" style="edgeStyle=orthogonalEdgeStyle;rounded=0;orthogonalLoop=1;jettySize=auto;html=1;entryX=0.5;entryY=0;entryDx=0;entryDy=0;entryPerimeter=0;" parent="1" source="7FsS_8g6NK_ldsd2cw5r-8" target="7FsS_8g6NK_ldsd2cw5r-10" edge="1">
          <mxGeometry relative="1" as="geometry">
            <Array as="points">
              <mxPoint x="20" y="190" />
              <mxPoint x="20" y="520" />
              <mxPoint x="105" y="520" />
            </Array>
          </mxGeometry>
        </mxCell>
        <mxCell id="7FsS_8g6NK_ldsd2cw5r-64" style="edgeStyle=orthogonalEdgeStyle;rounded=0;orthogonalLoop=1;jettySize=auto;html=1;" parent="1" source="7FsS_8g6NK_ldsd2cw5r-61" edge="1">
          <mxGeometry relative="1" as="geometry">
            <mxPoint x="519.9999999999999" y="720" as="targetPoint" />
            <Array as="points">
              <mxPoint x="349" y="820" />
              <mxPoint x="520" y="820" />
            </Array>
          </mxGeometry>
        </mxCell>
        <mxCell id="7FsS_8g6NK_ldsd2cw5r-61" value="PRINT()" style="rounded=0;whiteSpace=wrap;html=1;fontSize=9;" parent="1" vertex="1">
          <mxGeometry x="310.5113559322034" y="783.0337078651685" width="77.28813559322033" height="26.96629213483146" as="geometry" />
        </mxCell>
        <mxCell id="7FsS_8g6NK_ldsd2cw5r-73" value="" style="edgeStyle=orthogonalEdgeStyle;rounded=0;orthogonalLoop=1;jettySize=auto;html=1;" parent="1" source="7FsS_8g6NK_ldsd2cw5r-69" target="7FsS_8g6NK_ldsd2cw5r-72" edge="1">
          <mxGeometry relative="1" as="geometry" />
        </mxCell>
        <mxCell id="7FsS_8g6NK_ldsd2cw5r-69" value="load_data.open(&quot;loan_book.txt&quot;);" style="shape=document;whiteSpace=wrap;html=1;boundedLbl=1;fontSize=10;" parent="1" vertex="1">
          <mxGeometry x="765" y="153.82" width="170" height="44.27" as="geometry" />
        </mxCell>
        <mxCell id="O0Yn0nJ3hVip8s5nAJel-6" value="no" style="edgeStyle=orthogonalEdgeStyle;rounded=0;orthogonalLoop=1;jettySize=auto;html=1;" parent="1" source="7FsS_8g6NK_ldsd2cw5r-72" target="O0Yn0nJ3hVip8s5nAJel-5" edge="1">
          <mxGeometry relative="1" as="geometry" />
        </mxCell>
        <mxCell id="O0Yn0nJ3hVip8s5nAJel-18" value="yes" style="edgeStyle=orthogonalEdgeStyle;rounded=0;orthogonalLoop=1;jettySize=auto;html=1;entryX=0.5;entryY=0;entryDx=0;entryDy=0;" parent="1" source="7FsS_8g6NK_ldsd2cw5r-72" target="O0Yn0nJ3hVip8s5nAJel-17" edge="1">
          <mxGeometry relative="1" as="geometry" />
        </mxCell>
        <mxCell id="7FsS_8g6NK_ldsd2cw5r-72" value="load_data 가 열리지 않거나 &lt;br&gt;자료구조에 이미 데이터가 존재하는가" style="rhombus;whiteSpace=wrap;html=1;" parent="1" vertex="1">
          <mxGeometry x="746.25" y="225.73" width="207.5" height="64.27" as="geometry" />
        </mxCell>
        <mxCell id="O0Yn0nJ3hVip8s5nAJel-2" style="edgeStyle=orthogonalEdgeStyle;rounded=0;orthogonalLoop=1;jettySize=auto;html=1;entryX=0.5;entryY=0;entryDx=0;entryDy=0;" parent="1" source="O0Yn0nJ3hVip8s5nAJel-1" target="7FsS_8g6NK_ldsd2cw5r-69" edge="1">
          <mxGeometry relative="1" as="geometry" />
        </mxCell>
        <mxCell id="O0Yn0nJ3hVip8s5nAJel-1" value="start" style="strokeWidth=2;html=1;shape=mxgraph.flowchart.terminator;whiteSpace=wrap;" parent="1" vertex="1">
          <mxGeometry x="800" y="92.47" width="100" height="34.38" as="geometry" />
        </mxCell>
        <mxCell id="O0Yn0nJ3hVip8s5nAJel-3" value="end" style="strokeWidth=2;html=1;shape=mxgraph.flowchart.terminator;whiteSpace=wrap;" parent="1" vertex="1">
          <mxGeometry x="800" y="723.03" width="100" height="60" as="geometry" />
        </mxCell>
        <mxCell id="O0Yn0nJ3hVip8s5nAJel-8" value="no" style="edgeStyle=orthogonalEdgeStyle;rounded=0;orthogonalLoop=1;jettySize=auto;html=1;" parent="1" source="O0Yn0nJ3hVip8s5nAJel-5" target="O0Yn0nJ3hVip8s5nAJel-7" edge="1">
          <mxGeometry relative="1" as="geometry" />
        </mxCell>
        <mxCell id="O0Yn0nJ3hVip8s5nAJel-20" value="yes" style="edgeStyle=orthogonalEdgeStyle;rounded=0;orthogonalLoop=1;jettySize=auto;html=1;exitX=0;exitY=0.5;exitDx=0;exitDy=0;entryX=0;entryY=0.5;entryDx=0;entryDy=0;" parent="1" source="O0Yn0nJ3hVip8s5nAJel-5" target="O0Yn0nJ3hVip8s5nAJel-19" edge="1">
          <mxGeometry relative="1" as="geometry">
            <Array as="points">
              <mxPoint x="740" y="360" />
              <mxPoint x="740" y="640" />
            </Array>
          </mxGeometry>
        </mxCell>
        <mxCell id="O0Yn0nJ3hVip8s5nAJel-5" value="파일 포인터가 끝인가?" style="rhombus;whiteSpace=wrap;html=1;" parent="1" vertex="1">
          <mxGeometry x="810" y="320.11" width="80" height="80" as="geometry" />
        </mxCell>
        <mxCell id="O0Yn0nJ3hVip8s5nAJel-10" value="" style="edgeStyle=orthogonalEdgeStyle;rounded=0;orthogonalLoop=1;jettySize=auto;html=1;" parent="1" source="O0Yn0nJ3hVip8s5nAJel-7" target="O0Yn0nJ3hVip8s5nAJel-9" edge="1">
          <mxGeometry relative="1" as="geometry" />
        </mxCell>
        <mxCell id="O0Yn0nJ3hVip8s5nAJel-7" value="data 분리" style="rounded=0;whiteSpace=wrap;html=1;" parent="1" vertex="1">
          <mxGeometry x="790" y="432.25" width="120" height="30" as="geometry" />
        </mxCell>
        <mxCell id="O0Yn0nJ3hVip8s5nAJel-12" value="" style="edgeStyle=orthogonalEdgeStyle;rounded=0;orthogonalLoop=1;jettySize=auto;html=1;" parent="1" source="O0Yn0nJ3hVip8s5nAJel-9" target="O0Yn0nJ3hVip8s5nAJel-11" edge="1">
          <mxGeometry relative="1" as="geometry" />
        </mxCell>
        <mxCell id="O0Yn0nJ3hVip8s5nAJel-9" value="Loanbookdata에 삽입" style="whiteSpace=wrap;html=1;rounded=0;" parent="1" vertex="1">
          <mxGeometry x="790" y="487.25" width="120" height="35" as="geometry" />
        </mxCell>
        <mxCell id="O0Yn0nJ3hVip8s5nAJel-13" style="edgeStyle=orthogonalEdgeStyle;rounded=0;orthogonalLoop=1;jettySize=auto;html=1;endArrow=oval;endFill=1;" parent="1" source="O0Yn0nJ3hVip8s5nAJel-11" edge="1">
          <mxGeometry relative="1" as="geometry">
            <mxPoint x="850" y="300" as="targetPoint" />
            <Array as="points">
              <mxPoint x="970" y="560" />
              <mxPoint x="970" y="300" />
            </Array>
          </mxGeometry>
        </mxCell>
        <mxCell id="O0Yn0nJ3hVip8s5nAJel-11" value="bptree에 해당 data 삽입" style="whiteSpace=wrap;html=1;rounded=0;" parent="1" vertex="1">
          <mxGeometry x="780" y="547.25" width="140" height="30" as="geometry" />
        </mxCell>
        <mxCell id="O0Yn0nJ3hVip8s5nAJel-22" style="edgeStyle=orthogonalEdgeStyle;rounded=0;orthogonalLoop=1;jettySize=auto;html=1;endArrow=oval;endFill=1;" parent="1" source="O0Yn0nJ3hVip8s5nAJel-17" edge="1">
          <mxGeometry relative="1" as="geometry">
            <mxPoint x="850" y="700" as="targetPoint" />
            <Array as="points">
              <mxPoint x="640" y="700" />
            </Array>
          </mxGeometry>
        </mxCell>
        <mxCell id="O0Yn0nJ3hVip8s5nAJel-17" value="에러 코드 100 출력" style="rounded=0;whiteSpace=wrap;html=1;" parent="1" vertex="1">
          <mxGeometry x="580" y="445" width="120" height="60" as="geometry" />
        </mxCell>
        <mxCell id="O0Yn0nJ3hVip8s5nAJel-19" value="성공 코드 출력" style="rounded=0;whiteSpace=wrap;html=1;" parent="1" vertex="1">
          <mxGeometry x="790" y="610" width="120" height="60" as="geometry" />
        </mxCell>
        <mxCell id="O0Yn0nJ3hVip8s5nAJel-21" style="edgeStyle=orthogonalEdgeStyle;rounded=0;orthogonalLoop=1;jettySize=auto;html=1;entryX=0.5;entryY=0;entryDx=0;entryDy=0;entryPerimeter=0;" parent="1" source="O0Yn0nJ3hVip8s5nAJel-19" target="O0Yn0nJ3hVip8s5nAJel-3" edge="1">
          <mxGeometry relative="1" as="geometry" />
        </mxCell>
        <mxCell id="O0Yn0nJ3hVip8s5nAJel-26" style="edgeStyle=orthogonalEdgeStyle;rounded=0;orthogonalLoop=1;jettySize=auto;html=1;entryX=0.5;entryY=0;entryDx=0;entryDy=0;" parent="1" source="O0Yn0nJ3hVip8s5nAJel-24" target="O0Yn0nJ3hVip8s5nAJel-25" edge="1">
          <mxGeometry relative="1" as="geometry" />
        </mxCell>
        <mxCell id="O0Yn0nJ3hVip8s5nAJel-24" value="start" style="strokeWidth=2;html=1;shape=mxgraph.flowchart.terminator;whiteSpace=wrap;" parent="1" vertex="1">
          <mxGeometry x="1330" y="26" width="100" height="34.38" as="geometry" />
        </mxCell>
        <mxCell id="O0Yn0nJ3hVip8s5nAJel-28" style="edgeStyle=orthogonalEdgeStyle;rounded=0;orthogonalLoop=1;jettySize=auto;html=1;entryX=0.5;entryY=0;entryDx=0;entryDy=0;" parent="1" source="O0Yn0nJ3hVip8s5nAJel-25" target="O0Yn0nJ3hVip8s5nAJel-27" edge="1">
          <mxGeometry relative="1" as="geometry" />
        </mxCell>
        <mxCell id="O0Yn0nJ3hVip8s5nAJel-25" value="data를 저장" style="rounded=0;whiteSpace=wrap;html=1;" parent="1" vertex="1">
          <mxGeometry x="1320" y="99.25999999999999" width="120" height="60" as="geometry" />
        </mxCell>
        <mxCell id="O0Yn0nJ3hVip8s5nAJel-30" value="no" style="edgeStyle=orthogonalEdgeStyle;rounded=0;orthogonalLoop=1;jettySize=auto;html=1;entryX=0.5;entryY=0;entryDx=0;entryDy=0;" parent="1" source="O0Yn0nJ3hVip8s5nAJel-27" target="O0Yn0nJ3hVip8s5nAJel-29" edge="1">
          <mxGeometry relative="1" as="geometry" />
        </mxCell>
        <mxCell id="O0Yn0nJ3hVip8s5nAJel-27" value="data의 수가 4개인가" style="rhombus;whiteSpace=wrap;html=1;" parent="1" vertex="1">
          <mxGeometry x="1340" y="199.71" width="80" height="80" as="geometry" />
        </mxCell>
        <mxCell id="O0Yn0nJ3hVip8s5nAJel-58" style="edgeStyle=orthogonalEdgeStyle;rounded=0;orthogonalLoop=1;jettySize=auto;html=1;endArrow=oval;endFill=1;" parent="1" source="O0Yn0nJ3hVip8s5nAJel-29" edge="1">
          <mxGeometry relative="1" as="geometry">
            <mxPoint x="1380" y="713.53" as="targetPoint" />
            <Array as="points">
              <mxPoint x="1230" y="713.53" />
            </Array>
          </mxGeometry>
        </mxCell>
        <mxCell id="O0Yn0nJ3hVip8s5nAJel-29" value="에러 코드 200 출력" style="rounded=0;whiteSpace=wrap;html=1;" parent="1" vertex="1">
          <mxGeometry x="1170" y="393.53" width="120" height="60" as="geometry" />
        </mxCell>
        <mxCell id="O0Yn0nJ3hVip8s5nAJel-34" value="" style="edgeStyle=orthogonalEdgeStyle;rounded=0;orthogonalLoop=1;jettySize=auto;html=1;" parent="1" source="O0Yn0nJ3hVip8s5nAJel-31" target="O0Yn0nJ3hVip8s5nAJel-33" edge="1">
          <mxGeometry relative="1" as="geometry" />
        </mxCell>
        <mxCell id="O0Yn0nJ3hVip8s5nAJel-31" value="bptree에 삽입" style="rounded=0;whiteSpace=wrap;html=1;" parent="1" vertex="1">
          <mxGeometry x="1320" y="318.53" width="120" height="35" as="geometry" />
        </mxCell>
        <mxCell id="O0Yn0nJ3hVip8s5nAJel-32" value="yes" style="edgeStyle=orthogonalEdgeStyle;rounded=0;orthogonalLoop=1;jettySize=auto;html=1;entryX=0.5;entryY=0;entryDx=0;entryDy=0;" parent="1" source="O0Yn0nJ3hVip8s5nAJel-27" target="O0Yn0nJ3hVip8s5nAJel-31" edge="1">
          <mxGeometry relative="1" as="geometry" />
        </mxCell>
        <mxCell id="O0Yn0nJ3hVip8s5nAJel-35" value="no" style="edgeStyle=orthogonalEdgeStyle;rounded=0;orthogonalLoop=1;jettySize=auto;html=1;entryX=1;entryY=0.5;entryDx=0;entryDy=0;" parent="1" source="O0Yn0nJ3hVip8s5nAJel-33" target="O0Yn0nJ3hVip8s5nAJel-29" edge="1">
          <mxGeometry relative="1" as="geometry" />
        </mxCell>
        <mxCell id="O0Yn0nJ3hVip8s5nAJel-37" value="yes" style="edgeStyle=orthogonalEdgeStyle;rounded=0;orthogonalLoop=1;jettySize=auto;html=1;entryX=0.5;entryY=0;entryDx=0;entryDy=0;" parent="1" source="O0Yn0nJ3hVip8s5nAJel-33" target="O0Yn0nJ3hVip8s5nAJel-36" edge="1">
          <mxGeometry relative="1" as="geometry" />
        </mxCell>
        <mxCell id="O0Yn0nJ3hVip8s5nAJel-33" value="삽입에 성공했는가?" style="rhombus;whiteSpace=wrap;html=1;" parent="1" vertex="1">
          <mxGeometry x="1340" y="383.53" width="80" height="80" as="geometry" />
        </mxCell>
        <mxCell id="O0Yn0nJ3hVip8s5nAJel-55" value="" style="edgeStyle=orthogonalEdgeStyle;rounded=0;orthogonalLoop=1;jettySize=auto;html=1;" parent="1" source="O0Yn0nJ3hVip8s5nAJel-36" target="O0Yn0nJ3hVip8s5nAJel-54" edge="1">
          <mxGeometry relative="1" as="geometry" />
        </mxCell>
        <mxCell id="O0Yn0nJ3hVip8s5nAJel-36" value="삽입된 항목 출력" style="rounded=0;whiteSpace=wrap;html=1;" parent="1" vertex="1">
          <mxGeometry x="1320" y="492.17999999999995" width="120" height="60" as="geometry" />
        </mxCell>
        <mxCell id="O0Yn0nJ3hVip8s5nAJel-62" value="no" style="edgeStyle=orthogonalEdgeStyle;rounded=0;orthogonalLoop=1;jettySize=auto;html=1;" parent="1" source="O0Yn0nJ3hVip8s5nAJel-54" target="O0Yn0nJ3hVip8s5nAJel-59" edge="1">
          <mxGeometry relative="1" as="geometry" />
        </mxCell>
        <mxCell id="O0Yn0nJ3hVip8s5nAJel-64" value="yes" style="edgeStyle=orthogonalEdgeStyle;rounded=0;orthogonalLoop=1;jettySize=auto;html=1;" parent="1" source="O0Yn0nJ3hVip8s5nAJel-54" target="O0Yn0nJ3hVip8s5nAJel-56" edge="1">
          <mxGeometry x="-0.7778" relative="1" as="geometry">
            <Array as="points">
              <mxPoint x="1380" y="693.53" />
              <mxPoint x="1380" y="693.53" />
            </Array>
            <mxPoint as="offset" />
          </mxGeometry>
        </mxCell>
        <mxCell id="O0Yn0nJ3hVip8s5nAJel-54" value="넣은 데이터가 최대 권수를 넘었는가" style="rhombus;whiteSpace=wrap;html=1;" parent="1" vertex="1">
          <mxGeometry x="1340" y="593.53" width="80" height="80" as="geometry" />
        </mxCell>
        <mxCell id="O0Yn0nJ3hVip8s5nAJel-56" value="end" style="strokeWidth=2;html=1;shape=mxgraph.flowchart.terminator;whiteSpace=wrap;" parent="1" vertex="1">
          <mxGeometry x="1330" y="763.53" width="100" height="60" as="geometry" />
        </mxCell>
        <mxCell id="O0Yn0nJ3hVip8s5nAJel-61" value="" style="edgeStyle=orthogonalEdgeStyle;rounded=0;orthogonalLoop=1;jettySize=auto;html=1;" parent="1" source="O0Yn0nJ3hVip8s5nAJel-59" target="O0Yn0nJ3hVip8s5nAJel-60" edge="1">
          <mxGeometry relative="1" as="geometry" />
        </mxCell>
        <mxCell id="O0Yn0nJ3hVip8s5nAJel-59" value="selection tree에 삽입" style="rounded=0;whiteSpace=wrap;html=1;" parent="1" vertex="1">
          <mxGeometry x="1470" y="603.53" width="120" height="60" as="geometry" />
        </mxCell>
        <mxCell id="O0Yn0nJ3hVip8s5nAJel-63" style="edgeStyle=orthogonalEdgeStyle;rounded=0;orthogonalLoop=1;jettySize=auto;html=1;entryX=0.5;entryY=0;entryDx=0;entryDy=0;entryPerimeter=0;" parent="1" source="O0Yn0nJ3hVip8s5nAJel-60" target="O0Yn0nJ3hVip8s5nAJel-56" edge="1">
          <mxGeometry relative="1" as="geometry">
            <mxPoint x="1400" y="783.53" as="targetPoint" />
          </mxGeometry>
        </mxCell>
        <mxCell id="O0Yn0nJ3hVip8s5nAJel-60" value="bptree에서 해당 data 삭제" style="rounded=0;whiteSpace=wrap;html=1;" parent="1" vertex="1">
          <mxGeometry x="1470" y="683.53" width="120" height="60" as="geometry" />
        </mxCell>
        <mxCell id="O0Yn0nJ3hVip8s5nAJel-69" value="" style="edgeStyle=orthogonalEdgeStyle;rounded=0;orthogonalLoop=1;jettySize=auto;html=1;" parent="1" source="O0Yn0nJ3hVip8s5nAJel-65" target="O0Yn0nJ3hVip8s5nAJel-66" edge="1">
          <mxGeometry relative="1" as="geometry" />
        </mxCell>
        <mxCell id="O0Yn0nJ3hVip8s5nAJel-65" value="start" style="strokeWidth=2;html=1;shape=mxgraph.flowchart.terminator;whiteSpace=wrap;" parent="1" vertex="1">
          <mxGeometry x="1820" y="92.47" width="100" height="34.38" as="geometry" />
        </mxCell>
        <mxCell id="O0Yn0nJ3hVip8s5nAJel-71" value="yes" style="edgeStyle=orthogonalEdgeStyle;rounded=0;orthogonalLoop=1;jettySize=auto;html=1;entryX=0.5;entryY=0;entryDx=0;entryDy=0;exitX=0;exitY=0.5;exitDx=0;exitDy=0;" parent="1" source="O0Yn0nJ3hVip8s5nAJel-66" target="O0Yn0nJ3hVip8s5nAJel-70" edge="1">
          <mxGeometry relative="1" as="geometry">
            <Array as="points">
              <mxPoint x="1770" y="204" />
            </Array>
          </mxGeometry>
        </mxCell>
        <mxCell id="O0Yn0nJ3hVip8s5nAJel-73" value="no" style="edgeStyle=orthogonalEdgeStyle;rounded=0;orthogonalLoop=1;jettySize=auto;html=1;entryX=0.5;entryY=0;entryDx=0;entryDy=0;" parent="1" source="O0Yn0nJ3hVip8s5nAJel-66" target="O0Yn0nJ3hVip8s5nAJel-72" edge="1">
          <mxGeometry relative="1" as="geometry">
            <Array as="points">
              <mxPoint x="1970" y="204" />
            </Array>
          </mxGeometry>
        </mxCell>
        <mxCell id="O0Yn0nJ3hVip8s5nAJel-66" value="입력 받은 파라미터가&lt;br&gt;&amp;nbsp;1 개인가" style="rhombus;whiteSpace=wrap;html=1;" parent="1" vertex="1">
          <mxGeometry x="1830" y="165.73" width="80" height="77" as="geometry" />
        </mxCell>
        <mxCell id="O0Yn0nJ3hVip8s5nAJel-75" value="" style="edgeStyle=orthogonalEdgeStyle;rounded=0;orthogonalLoop=1;jettySize=auto;html=1;" parent="1" source="O0Yn0nJ3hVip8s5nAJel-70" target="O0Yn0nJ3hVip8s5nAJel-74" edge="1">
          <mxGeometry relative="1" as="geometry" />
        </mxCell>
        <mxCell id="O0Yn0nJ3hVip8s5nAJel-70" value="search bp book을 실행" style="rounded=0;whiteSpace=wrap;html=1;" parent="1" vertex="1">
          <mxGeometry x="1700" y="261.62" width="140" height="54" as="geometry" />
        </mxCell>
        <mxCell id="O0Yn0nJ3hVip8s5nAJel-77" value="" style="edgeStyle=orthogonalEdgeStyle;rounded=0;orthogonalLoop=1;jettySize=auto;html=1;" parent="1" source="O0Yn0nJ3hVip8s5nAJel-72" target="O0Yn0nJ3hVip8s5nAJel-76" edge="1">
          <mxGeometry relative="1" as="geometry" />
        </mxCell>
        <mxCell id="O0Yn0nJ3hVip8s5nAJel-72" value="search bp range를 실행" style="rounded=0;whiteSpace=wrap;html=1;" parent="1" vertex="1">
          <mxGeometry x="1900" y="261.62" width="140" height="54" as="geometry" />
        </mxCell>
        <mxCell id="O0Yn0nJ3hVip8s5nAJel-79" value="no" style="edgeStyle=orthogonalEdgeStyle;rounded=0;orthogonalLoop=1;jettySize=auto;html=1;entryX=0.5;entryY=0;entryDx=0;entryDy=0;" parent="1" source="O0Yn0nJ3hVip8s5nAJel-74" target="O0Yn0nJ3hVip8s5nAJel-78" edge="1">
          <mxGeometry relative="1" as="geometry">
            <Array as="points">
              <mxPoint x="1870" y="392" />
            </Array>
          </mxGeometry>
        </mxCell>
        <mxCell id="O0Yn0nJ3hVip8s5nAJel-85" style="edgeStyle=orthogonalEdgeStyle;rounded=0;orthogonalLoop=1;jettySize=auto;html=1;endArrow=oval;endFill=1;" parent="1" source="O0Yn0nJ3hVip8s5nAJel-74" edge="1">
          <mxGeometry relative="1" as="geometry">
            <mxPoint x="1870" y="540" as="targetPoint" />
            <Array as="points">
              <mxPoint x="1770" y="540" />
            </Array>
          </mxGeometry>
        </mxCell>
        <mxCell id="O0Yn0nJ3hVip8s5nAJel-74" value="해당 책이 존재하는가" style="rhombus;whiteSpace=wrap;html=1;" parent="1" vertex="1">
          <mxGeometry x="1730" y="352.25" width="80" height="80" as="geometry" />
        </mxCell>
        <mxCell id="O0Yn0nJ3hVip8s5nAJel-82" style="edgeStyle=orthogonalEdgeStyle;rounded=0;orthogonalLoop=1;jettySize=auto;html=1;exitX=0;exitY=0.5;exitDx=0;exitDy=0;endArrow=oval;endFill=1;" parent="1" source="O0Yn0nJ3hVip8s5nAJel-76" edge="1">
          <mxGeometry relative="1" as="geometry">
            <mxPoint x="1870" y="392" as="targetPoint" />
            <Array as="points">
              <mxPoint x="1910" y="392" />
              <mxPoint x="1870" y="392" />
            </Array>
          </mxGeometry>
        </mxCell>
        <mxCell id="O0Yn0nJ3hVip8s5nAJel-84" value="yes" style="edgeStyle=orthogonalEdgeStyle;rounded=0;orthogonalLoop=1;jettySize=auto;html=1;entryX=0.5;entryY=0;entryDx=0;entryDy=0;" parent="1" source="O0Yn0nJ3hVip8s5nAJel-76" target="O0Yn0nJ3hVip8s5nAJel-83" edge="1">
          <mxGeometry x="0.8131" relative="1" as="geometry">
            <Array as="points">
              <mxPoint x="1970" y="540" />
              <mxPoint x="1870" y="540" />
            </Array>
            <mxPoint as="offset" />
          </mxGeometry>
        </mxCell>
        <mxCell id="O0Yn0nJ3hVip8s5nAJel-76" value="책들이 범위 내에 존재하는가" style="rhombus;whiteSpace=wrap;html=1;" parent="1" vertex="1">
          <mxGeometry x="1930" y="352.25" width="80" height="80" as="geometry" />
        </mxCell>
        <mxCell id="O0Yn0nJ3hVip8s5nAJel-88" style="edgeStyle=orthogonalEdgeStyle;rounded=0;orthogonalLoop=1;jettySize=auto;html=1;endArrow=oval;endFill=1;" parent="1" source="O0Yn0nJ3hVip8s5nAJel-78" edge="1">
          <mxGeometry relative="1" as="geometry">
            <mxPoint x="1870" y="660" as="targetPoint" />
            <Array as="points">
              <mxPoint x="1950" y="490" />
              <mxPoint x="1950" y="660" />
            </Array>
          </mxGeometry>
        </mxCell>
        <mxCell id="O0Yn0nJ3hVip8s5nAJel-78" value="에러 코드 300을 출력" style="rounded=0;whiteSpace=wrap;html=1;" parent="1" vertex="1">
          <mxGeometry x="1810" y="460" width="120" height="60" as="geometry" />
        </mxCell>
        <mxCell id="O0Yn0nJ3hVip8s5nAJel-87" value="" style="edgeStyle=orthogonalEdgeStyle;rounded=0;orthogonalLoop=1;jettySize=auto;html=1;" parent="1" source="O0Yn0nJ3hVip8s5nAJel-83" target="O0Yn0nJ3hVip8s5nAJel-86" edge="1">
          <mxGeometry relative="1" as="geometry" />
        </mxCell>
        <mxCell id="O0Yn0nJ3hVip8s5nAJel-83" value="해당 하는 책(들)의 모든 data 출력" style="rounded=0;whiteSpace=wrap;html=1;" parent="1" vertex="1">
          <mxGeometry x="1810" y="583.48" width="120" height="60" as="geometry" />
        </mxCell>
        <mxCell id="O0Yn0nJ3hVip8s5nAJel-86" value="end" style="strokeWidth=2;html=1;shape=mxgraph.flowchart.terminator;whiteSpace=wrap;" parent="1" vertex="1">
          <mxGeometry x="1820" y="696.07" width="100" height="60" as="geometry" />
        </mxCell>
        <mxCell id="O0Yn0nJ3hVip8s5nAJel-91" value="" style="edgeStyle=orthogonalEdgeStyle;rounded=0;orthogonalLoop=1;jettySize=auto;html=1;" parent="1" source="O0Yn0nJ3hVip8s5nAJel-89" target="O0Yn0nJ3hVip8s5nAJel-90" edge="1">
          <mxGeometry relative="1" as="geometry" />
        </mxCell>
        <mxCell id="O0Yn0nJ3hVip8s5nAJel-89" value="start" style="strokeWidth=2;html=1;shape=mxgraph.flowchart.terminator;whiteSpace=wrap;" parent="1" vertex="1">
          <mxGeometry x="213" y="920" width="100" height="60" as="geometry" />
        </mxCell>
        <mxCell id="O0Yn0nJ3hVip8s5nAJel-95" value="" style="edgeStyle=orthogonalEdgeStyle;rounded=0;orthogonalLoop=1;jettySize=auto;html=1;" parent="1" source="O0Yn0nJ3hVip8s5nAJel-90" target="O0Yn0nJ3hVip8s5nAJel-94" edge="1">
          <mxGeometry relative="1" as="geometry" />
        </mxCell>
        <mxCell id="O0Yn0nJ3hVip8s5nAJel-90" value="bp tree에서 가장 왼쪽에 있는 data node로 이동" style="rounded=0;whiteSpace=wrap;html=1;" parent="1" vertex="1">
          <mxGeometry x="194.5" y="1020" width="137" height="50" as="geometry" />
        </mxCell>
        <mxCell id="O0Yn0nJ3hVip8s5nAJel-97" value="no" style="edgeStyle=orthogonalEdgeStyle;rounded=0;orthogonalLoop=1;jettySize=auto;html=1;entryX=0.5;entryY=0;entryDx=0;entryDy=0;" parent="1" source="O0Yn0nJ3hVip8s5nAJel-94" target="O0Yn0nJ3hVip8s5nAJel-96" edge="1">
          <mxGeometry relative="1" as="geometry">
            <Array as="points">
              <mxPoint x="167" y="1140" />
            </Array>
          </mxGeometry>
        </mxCell>
        <mxCell id="O0Yn0nJ3hVip8s5nAJel-99" value="yes" style="edgeStyle=orthogonalEdgeStyle;rounded=0;orthogonalLoop=1;jettySize=auto;html=1;" parent="1" source="O0Yn0nJ3hVip8s5nAJel-94" target="O0Yn0nJ3hVip8s5nAJel-98" edge="1">
          <mxGeometry relative="1" as="geometry" />
        </mxCell>
        <mxCell id="O0Yn0nJ3hVip8s5nAJel-94" value="data node가 존재하는가" style="rhombus;whiteSpace=wrap;html=1;" parent="1" vertex="1">
          <mxGeometry x="223" y="1100" width="80" height="80" as="geometry" />
        </mxCell>
        <mxCell id="O0Yn0nJ3hVip8s5nAJel-109" style="edgeStyle=orthogonalEdgeStyle;rounded=0;orthogonalLoop=1;jettySize=auto;html=1;endArrow=oval;endFill=1;" parent="1" source="O0Yn0nJ3hVip8s5nAJel-96" edge="1">
          <mxGeometry relative="1" as="geometry">
            <mxPoint x="260" y="1350" as="targetPoint" />
            <Array as="points">
              <mxPoint x="167" y="1350" />
            </Array>
          </mxGeometry>
        </mxCell>
        <mxCell id="O0Yn0nJ3hVip8s5nAJel-96" value="에러 코드 400 출력" style="rounded=0;whiteSpace=wrap;html=1;" parent="1" vertex="1">
          <mxGeometry x="98.25" y="1210" width="137" height="50" as="geometry" />
        </mxCell>
        <mxCell id="O0Yn0nJ3hVip8s5nAJel-102" value="no" style="edgeStyle=orthogonalEdgeStyle;rounded=0;orthogonalLoop=1;jettySize=auto;html=1;entryX=0.5;entryY=0;entryDx=0;entryDy=0;" parent="1" source="O0Yn0nJ3hVip8s5nAJel-98" target="O0Yn0nJ3hVip8s5nAJel-101" edge="1">
          <mxGeometry relative="1" as="geometry" />
        </mxCell>
        <mxCell id="O0Yn0nJ3hVip8s5nAJel-98" value="data node가&lt;br&gt;더 이상 없는가" style="rhombus;whiteSpace=wrap;html=1;" parent="1" vertex="1">
          <mxGeometry x="358.5" y="1100" width="90" height="80" as="geometry" />
        </mxCell>
        <mxCell id="O0Yn0nJ3hVip8s5nAJel-103" style="edgeStyle=orthogonalEdgeStyle;rounded=0;orthogonalLoop=1;jettySize=auto;html=1;endArrow=oval;endFill=1;exitX=0;exitY=0.5;exitDx=0;exitDy=0;" parent="1" source="O0Yn0nJ3hVip8s5nAJel-105" edge="1">
          <mxGeometry relative="1" as="geometry">
            <mxPoint x="310" y="1140" as="targetPoint" />
            <Array as="points">
              <mxPoint x="310" y="1288" />
            </Array>
          </mxGeometry>
        </mxCell>
        <mxCell id="O0Yn0nJ3hVip8s5nAJel-111" style="edgeStyle=orthogonalEdgeStyle;rounded=0;orthogonalLoop=1;jettySize=auto;html=1;entryX=0.5;entryY=0;entryDx=0;entryDy=0;" parent="1" source="O0Yn0nJ3hVip8s5nAJel-101" target="O0Yn0nJ3hVip8s5nAJel-105" edge="1">
          <mxGeometry relative="1" as="geometry" />
        </mxCell>
        <mxCell id="O0Yn0nJ3hVip8s5nAJel-101" value="node내 모든 data 출력" style="rounded=0;whiteSpace=wrap;html=1;" parent="1" vertex="1">
          <mxGeometry x="340" y="1210" width="127" height="45" as="geometry" />
        </mxCell>
        <mxCell id="O0Yn0nJ3hVip8s5nAJel-105" value="next 노드로 이동" style="rounded=0;whiteSpace=wrap;html=1;" parent="1" vertex="1">
          <mxGeometry x="340" y="1280" width="127" height="45" as="geometry" />
        </mxCell>
        <mxCell id="O0Yn0nJ3hVip8s5nAJel-107" value="end" style="strokeWidth=2;html=1;shape=mxgraph.flowchart.terminator;whiteSpace=wrap;" parent="1" vertex="1">
          <mxGeometry x="210.51" y="1380" width="100" height="60" as="geometry" />
        </mxCell>
        <mxCell id="O0Yn0nJ3hVip8s5nAJel-108" style="edgeStyle=orthogonalEdgeStyle;rounded=0;orthogonalLoop=1;jettySize=auto;html=1;entryX=0.5;entryY=0;entryDx=0;entryDy=0;entryPerimeter=0;" parent="1" source="O0Yn0nJ3hVip8s5nAJel-98" target="O0Yn0nJ3hVip8s5nAJel-107" edge="1">
          <mxGeometry relative="1" as="geometry">
            <Array as="points">
              <mxPoint x="490" y="1140" />
              <mxPoint x="490" y="1350" />
              <mxPoint x="260" y="1350" />
            </Array>
          </mxGeometry>
        </mxCell>
        <mxCell id="O0Yn0nJ3hVip8s5nAJel-114" style="edgeStyle=orthogonalEdgeStyle;rounded=0;orthogonalLoop=1;jettySize=auto;html=1;entryX=0.5;entryY=0;entryDx=0;entryDy=0;" parent="1" source="O0Yn0nJ3hVip8s5nAJel-112" target="O0Yn0nJ3hVip8s5nAJel-113" edge="1">
          <mxGeometry relative="1" as="geometry" />
        </mxCell>
        <mxCell id="O0Yn0nJ3hVip8s5nAJel-112" value="start" style="strokeWidth=2;html=1;shape=mxgraph.flowchart.terminator;whiteSpace=wrap;" parent="1" vertex="1">
          <mxGeometry x="710" y="880" width="100" height="60" as="geometry" />
        </mxCell>
        <mxCell id="O0Yn0nJ3hVip8s5nAJel-116" style="edgeStyle=orthogonalEdgeStyle;rounded=0;orthogonalLoop=1;jettySize=auto;html=1;entryX=0.5;entryY=0;entryDx=0;entryDy=0;" parent="1" source="O0Yn0nJ3hVip8s5nAJel-113" target="O0Yn0nJ3hVip8s5nAJel-115" edge="1">
          <mxGeometry relative="1" as="geometry" />
        </mxCell>
        <mxCell id="O0Yn0nJ3hVip8s5nAJel-113" value="분류 코드를 파라미터로 받는다" style="rounded=0;whiteSpace=wrap;html=1;" parent="1" vertex="1">
          <mxGeometry x="670" y="970" width="180" height="40" as="geometry" />
        </mxCell>
        <mxCell id="O0Yn0nJ3hVip8s5nAJel-118" style="edgeStyle=orthogonalEdgeStyle;rounded=0;orthogonalLoop=1;jettySize=auto;html=1;entryX=0.5;entryY=0;entryDx=0;entryDy=0;" parent="1" source="O0Yn0nJ3hVip8s5nAJel-115" target="O0Yn0nJ3hVip8s5nAJel-117" edge="1">
          <mxGeometry relative="1" as="geometry" />
        </mxCell>
        <mxCell id="O0Yn0nJ3hVip8s5nAJel-115" value="얻은 데이터를 이용하여 해당 Run인 selection tree의 leaf node로 접근" style="rounded=0;whiteSpace=wrap;html=1;" parent="1" vertex="1">
          <mxGeometry x="660" y="1040" width="200" height="40" as="geometry" />
        </mxCell>
        <mxCell id="O0Yn0nJ3hVip8s5nAJel-120" value="yes" style="edgeStyle=orthogonalEdgeStyle;rounded=0;orthogonalLoop=1;jettySize=auto;html=1;entryX=0.5;entryY=0;entryDx=0;entryDy=0;exitX=0;exitY=0.5;exitDx=0;exitDy=0;" parent="1" source="O0Yn0nJ3hVip8s5nAJel-117" target="O0Yn0nJ3hVip8s5nAJel-119" edge="1">
          <mxGeometry relative="1" as="geometry" />
        </mxCell>
        <mxCell id="O0Yn0nJ3hVip8s5nAJel-124" value="no" style="edgeStyle=orthogonalEdgeStyle;rounded=0;orthogonalLoop=1;jettySize=auto;html=1;entryX=0.5;entryY=0;entryDx=0;entryDy=0;" parent="1" source="O0Yn0nJ3hVip8s5nAJel-117" target="O0Yn0nJ3hVip8s5nAJel-123" edge="1">
          <mxGeometry relative="1" as="geometry">
            <Array as="points">
              <mxPoint x="860" y="1150" />
            </Array>
          </mxGeometry>
        </mxCell>
        <mxCell id="O0Yn0nJ3hVip8s5nAJel-117" value="heap에 &lt;br&gt;data가 없는 경우" style="rhombus;whiteSpace=wrap;html=1;" parent="1" vertex="1">
          <mxGeometry x="720" y="1110" width="80" height="80" as="geometry" />
        </mxCell>
        <mxCell id="O0Yn0nJ3hVip8s5nAJel-131" style="edgeStyle=orthogonalEdgeStyle;rounded=0;orthogonalLoop=1;jettySize=auto;html=1;endArrow=oval;endFill=1;" parent="1" source="O0Yn0nJ3hVip8s5nAJel-119" edge="1">
          <mxGeometry relative="1" as="geometry">
            <mxPoint x="760" y="1440" as="targetPoint" />
            <Array as="points">
              <mxPoint x="660" y="1440" />
            </Array>
          </mxGeometry>
        </mxCell>
        <mxCell id="O0Yn0nJ3hVip8s5nAJel-119" value="에러 코드 500 출력" style="rounded=0;whiteSpace=wrap;html=1;" parent="1" vertex="1">
          <mxGeometry x="600" y="1300" width="120" height="60" as="geometry" />
        </mxCell>
        <mxCell id="O0Yn0nJ3hVip8s5nAJel-126" value="" style="edgeStyle=orthogonalEdgeStyle;rounded=0;orthogonalLoop=1;jettySize=auto;html=1;" parent="1" source="O0Yn0nJ3hVip8s5nAJel-123" target="O0Yn0nJ3hVip8s5nAJel-125" edge="1">
          <mxGeometry relative="1" as="geometry" />
        </mxCell>
        <mxCell id="O0Yn0nJ3hVip8s5nAJel-123" value="힙에 존재하는 모든 데이터를 맵에 저장" style="rounded=0;whiteSpace=wrap;html=1;" parent="1" vertex="1">
          <mxGeometry x="800" y="1215" width="120" height="60" as="geometry" />
        </mxCell>
        <mxCell id="O0Yn0nJ3hVip8s5nAJel-128" value="" style="edgeStyle=orthogonalEdgeStyle;rounded=0;orthogonalLoop=1;jettySize=auto;html=1;entryX=0.5;entryY=0;entryDx=0;entryDy=0;entryPerimeter=0;" parent="1" source="O0Yn0nJ3hVip8s5nAJel-125" target="O0Yn0nJ3hVip8s5nAJel-129" edge="1">
          <mxGeometry relative="1" as="geometry">
            <mxPoint x="860.0000000000002" y="1380" as="targetPoint" />
            <Array as="points">
              <mxPoint x="860" y="1440" />
              <mxPoint x="760" y="1440" />
            </Array>
          </mxGeometry>
        </mxCell>
        <mxCell id="O0Yn0nJ3hVip8s5nAJel-125" value="맵에 존재하는 모든&lt;br&gt;값 출력" style="rounded=0;whiteSpace=wrap;html=1;" parent="1" vertex="1">
          <mxGeometry x="800" y="1300" width="120" height="60" as="geometry" />
        </mxCell>
        <mxCell id="O0Yn0nJ3hVip8s5nAJel-129" value="end" style="strokeWidth=2;html=1;shape=mxgraph.flowchart.terminator;whiteSpace=wrap;" parent="1" vertex="1">
          <mxGeometry x="710" y="1465" width="100" height="60" as="geometry" />
        </mxCell>
        <mxCell id="O0Yn0nJ3hVip8s5nAJel-135" value="" style="edgeStyle=orthogonalEdgeStyle;rounded=0;orthogonalLoop=1;jettySize=auto;html=1;" parent="1" source="O0Yn0nJ3hVip8s5nAJel-132" target="O0Yn0nJ3hVip8s5nAJel-134" edge="1">
          <mxGeometry relative="1" as="geometry" />
        </mxCell>
        <mxCell id="O0Yn0nJ3hVip8s5nAJel-132" value="start" style="strokeWidth=2;html=1;shape=mxgraph.flowchart.terminator;whiteSpace=wrap;" parent="1" vertex="1">
          <mxGeometry x="1284.5" y="850" width="100" height="60" as="geometry" />
        </mxCell>
        <mxCell id="O0Yn0nJ3hVip8s5nAJel-143" value="yes" style="edgeStyle=orthogonalEdgeStyle;rounded=0;orthogonalLoop=1;jettySize=auto;html=1;entryX=0.5;entryY=0;entryDx=0;entryDy=0;" parent="1" source="O0Yn0nJ3hVip8s5nAJel-134" target="O0Yn0nJ3hVip8s5nAJel-142" edge="1">
          <mxGeometry relative="1" as="geometry" />
        </mxCell>
        <mxCell id="O0Yn0nJ3hVip8s5nAJel-159" value="yes" style="edgeStyle=orthogonalEdgeStyle;rounded=0;orthogonalLoop=1;jettySize=auto;html=1;" parent="1" source="O0Yn0nJ3hVip8s5nAJel-134" target="O0Yn0nJ3hVip8s5nAJel-158" edge="1">
          <mxGeometry relative="1" as="geometry" />
        </mxCell>
        <mxCell id="O0Yn0nJ3hVip8s5nAJel-134" value="root가 있는가" style="rhombus;whiteSpace=wrap;html=1;" parent="1" vertex="1">
          <mxGeometry x="1284.5" y="950" width="100" height="70" as="geometry" />
        </mxCell>
        <mxCell id="O0Yn0nJ3hVip8s5nAJel-141" value="" style="edgeStyle=orthogonalEdgeStyle;rounded=0;orthogonalLoop=1;jettySize=auto;html=1;" parent="1" source="O0Yn0nJ3hVip8s5nAJel-137" target="O0Yn0nJ3hVip8s5nAJel-140" edge="1">
          <mxGeometry relative="1" as="geometry" />
        </mxCell>
        <mxCell id="O0Yn0nJ3hVip8s5nAJel-137" value="root가 갖고 있는 data와 &lt;br&gt;같은 data를 갖는&lt;br&gt;leaf node로 이동" style="rounded=0;whiteSpace=wrap;html=1;" parent="1" vertex="1">
          <mxGeometry x="1250" y="1160" width="170" height="50" as="geometry" />
        </mxCell>
        <mxCell id="O0Yn0nJ3hVip8s5nAJel-148" value="" style="edgeStyle=orthogonalEdgeStyle;rounded=0;orthogonalLoop=1;jettySize=auto;html=1;" parent="1" source="O0Yn0nJ3hVip8s5nAJel-140" target="O0Yn0nJ3hVip8s5nAJel-146" edge="1">
          <mxGeometry relative="1" as="geometry" />
        </mxCell>
        <mxCell id="O0Yn0nJ3hVip8s5nAJel-140" value="heap에서 삭제 연산 시행" style="rounded=0;whiteSpace=wrap;html=1;" parent="1" vertex="1">
          <mxGeometry x="1250" y="1240" width="170" height="40" as="geometry" />
        </mxCell>
        <mxCell id="O0Yn0nJ3hVip8s5nAJel-156" style="edgeStyle=orthogonalEdgeStyle;rounded=0;orthogonalLoop=1;jettySize=auto;html=1;endArrow=oval;endFill=1;" parent="1" source="O0Yn0nJ3hVip8s5nAJel-142" edge="1">
          <mxGeometry relative="1" as="geometry">
            <mxPoint x="1215" y="1610" as="targetPoint" />
            <Array as="points">
              <mxPoint x="1105" y="1610" />
            </Array>
          </mxGeometry>
        </mxCell>
        <mxCell id="O0Yn0nJ3hVip8s5nAJel-142" value="에러 코드 600 출력" style="rounded=0;whiteSpace=wrap;html=1;" parent="1" vertex="1">
          <mxGeometry x="1045" y="1290" width="120" height="60" as="geometry" />
        </mxCell>
        <mxCell id="O0Yn0nJ3hVip8s5nAJel-152" value="" style="edgeStyle=orthogonalEdgeStyle;rounded=0;orthogonalLoop=1;jettySize=auto;html=1;" parent="1" source="O0Yn0nJ3hVip8s5nAJel-144" target="O0Yn0nJ3hVip8s5nAJel-151" edge="1">
          <mxGeometry relative="1" as="geometry" />
        </mxCell>
        <mxCell id="O0Yn0nJ3hVip8s5nAJel-144" value="왔던 경로로 다시 root로 돌아가면서 sibling node와 data를 비교" style="rounded=0;whiteSpace=wrap;html=1;" parent="1" vertex="1">
          <mxGeometry x="1275" y="1440" width="120" height="60" as="geometry" />
        </mxCell>
        <mxCell id="O0Yn0nJ3hVip8s5nAJel-150" value="yes" style="edgeStyle=orthogonalEdgeStyle;rounded=0;orthogonalLoop=1;jettySize=auto;html=1;" parent="1" source="O0Yn0nJ3hVip8s5nAJel-146" target="O0Yn0nJ3hVip8s5nAJel-144" edge="1">
          <mxGeometry relative="1" as="geometry" />
        </mxCell>
        <mxCell id="O0Yn0nJ3hVip8s5nAJel-146" value="parent가 있는가?" style="rhombus;whiteSpace=wrap;html=1;" parent="1" vertex="1">
          <mxGeometry x="1280" y="1325" width="110" height="77.5" as="geometry" />
        </mxCell>
        <mxCell id="O0Yn0nJ3hVip8s5nAJel-151" value="더 작은 data를 부모 노드에 복사" style="rounded=0;whiteSpace=wrap;html=1;" parent="1" vertex="1">
          <mxGeometry x="1275" y="1540" width="120" height="60" as="geometry" />
        </mxCell>
        <mxCell id="O0Yn0nJ3hVip8s5nAJel-154" value="end" style="strokeWidth=2;html=1;shape=mxgraph.flowchart.terminator;whiteSpace=wrap;" parent="1" vertex="1">
          <mxGeometry x="1165" y="1640" width="100" height="60" as="geometry" />
        </mxCell>
        <mxCell id="O0Yn0nJ3hVip8s5nAJel-155" style="edgeStyle=orthogonalEdgeStyle;rounded=0;orthogonalLoop=1;jettySize=auto;html=1;entryX=0.5;entryY=0;entryDx=0;entryDy=0;entryPerimeter=0;" parent="1" source="O0Yn0nJ3hVip8s5nAJel-151" target="O0Yn0nJ3hVip8s5nAJel-154" edge="1">
          <mxGeometry relative="1" as="geometry">
            <Array as="points">
              <mxPoint x="1335" y="1610" />
              <mxPoint x="1215" y="1610" />
            </Array>
          </mxGeometry>
        </mxCell>
        <mxCell id="O0Yn0nJ3hVip8s5nAJel-157" value="no" style="edgeStyle=orthogonalEdgeStyle;rounded=0;orthogonalLoop=1;jettySize=auto;html=1;entryX=0.5;entryY=0;entryDx=0;entryDy=0;entryPerimeter=0;" parent="1" source="O0Yn0nJ3hVip8s5nAJel-146" target="O0Yn0nJ3hVip8s5nAJel-154" edge="1">
          <mxGeometry relative="1" as="geometry" />
        </mxCell>
        <mxCell id="O0Yn0nJ3hVip8s5nAJel-160" value="yes" style="edgeStyle=orthogonalEdgeStyle;rounded=0;orthogonalLoop=1;jettySize=auto;html=1;entryX=0.5;entryY=0;entryDx=0;entryDy=0;" parent="1" source="O0Yn0nJ3hVip8s5nAJel-158" target="O0Yn0nJ3hVip8s5nAJel-137" edge="1">
          <mxGeometry relative="1" as="geometry" />
        </mxCell>
        <mxCell id="O0Yn0nJ3hVip8s5nAJel-161" style="edgeStyle=orthogonalEdgeStyle;rounded=0;orthogonalLoop=1;jettySize=auto;html=1;endArrow=oval;endFill=1;" parent="1" source="O0Yn0nJ3hVip8s5nAJel-158" edge="1">
          <mxGeometry relative="1" as="geometry">
            <mxPoint x="1104.5" y="1085" as="targetPoint" />
          </mxGeometry>
        </mxCell>
        <mxCell id="O0Yn0nJ3hVip8s5nAJel-158" value="root에 bookdata가 존재하는가" style="rhombus;whiteSpace=wrap;html=1;" parent="1" vertex="1">
          <mxGeometry x="1284.5" y="1050" width="100" height="70" as="geometry" />
        </mxCell>
        <mxCell id="O0Yn0nJ3hVip8s5nAJel-164" style="edgeStyle=orthogonalEdgeStyle;rounded=0;orthogonalLoop=1;jettySize=auto;html=1;entryX=0.5;entryY=0;entryDx=0;entryDy=0;" parent="1" source="O0Yn0nJ3hVip8s5nAJel-162" target="O0Yn0nJ3hVip8s5nAJel-163" edge="1">
          <mxGeometry relative="1" as="geometry" />
        </mxCell>
        <mxCell id="O0Yn0nJ3hVip8s5nAJel-162" value="start" style="strokeWidth=2;html=1;shape=mxgraph.flowchart.terminator;whiteSpace=wrap;" parent="1" vertex="1">
          <mxGeometry x="1710" y="940" width="100" height="60" as="geometry" />
        </mxCell>
        <mxCell id="O0Yn0nJ3hVip8s5nAJel-166" value="" style="edgeStyle=orthogonalEdgeStyle;rounded=0;orthogonalLoop=1;jettySize=auto;html=1;" parent="1" source="O0Yn0nJ3hVip8s5nAJel-163" target="O0Yn0nJ3hVip8s5nAJel-165" edge="1">
          <mxGeometry relative="1" as="geometry" />
        </mxCell>
        <mxCell id="O0Yn0nJ3hVip8s5nAJel-163" value="EXIT 성공 코드 출력" style="rounded=0;whiteSpace=wrap;html=1;" parent="1" vertex="1">
          <mxGeometry x="1700" y="1030" width="120" height="60" as="geometry" />
        </mxCell>
        <mxCell id="O0Yn0nJ3hVip8s5nAJel-168" value="yes" style="edgeStyle=orthogonalEdgeStyle;rounded=0;orthogonalLoop=1;jettySize=auto;html=1;" parent="1" source="O0Yn0nJ3hVip8s5nAJel-165" target="O0Yn0nJ3hVip8s5nAJel-167" edge="1">
          <mxGeometry relative="1" as="geometry" />
        </mxCell>
        <mxCell id="O0Yn0nJ3hVip8s5nAJel-170" value="no" style="edgeStyle=orthogonalEdgeStyle;rounded=0;orthogonalLoop=1;jettySize=auto;html=1;" parent="1" source="O0Yn0nJ3hVip8s5nAJel-165" target="O0Yn0nJ3hVip8s5nAJel-169" edge="1">
          <mxGeometry relative="1" as="geometry" />
        </mxCell>
        <mxCell id="O0Yn0nJ3hVip8s5nAJel-165" value="flog파일이 열렸는가" style="rhombus;whiteSpace=wrap;html=1;" parent="1" vertex="1">
          <mxGeometry x="1700" y="1130" width="120" height="70" as="geometry" />
        </mxCell>
        <mxCell id="O0Yn0nJ3hVip8s5nAJel-190" style="edgeStyle=orthogonalEdgeStyle;rounded=0;orthogonalLoop=1;jettySize=auto;html=1;endArrow=oval;endFill=1;" parent="1" source="O0Yn0nJ3hVip8s5nAJel-167" edge="1">
          <mxGeometry relative="1" as="geometry">
            <mxPoint x="1760" y="1220" as="targetPoint" />
            <Array as="points">
              <mxPoint x="1950" y="1220" />
            </Array>
          </mxGeometry>
        </mxCell>
        <mxCell id="O0Yn0nJ3hVip8s5nAJel-167" value="flog file 닫기" style="rounded=0;whiteSpace=wrap;html=1;" parent="1" vertex="1">
          <mxGeometry x="1890" y="1135" width="120" height="60" as="geometry" />
        </mxCell>
        <mxCell id="O0Yn0nJ3hVip8s5nAJel-172" value="yes" style="edgeStyle=orthogonalEdgeStyle;rounded=0;orthogonalLoop=1;jettySize=auto;html=1;" parent="1" source="O0Yn0nJ3hVip8s5nAJel-169" target="O0Yn0nJ3hVip8s5nAJel-171" edge="1">
          <mxGeometry relative="1" as="geometry" />
        </mxCell>
        <mxCell id="O0Yn0nJ3hVip8s5nAJel-174" value="" style="edgeStyle=orthogonalEdgeStyle;rounded=0;orthogonalLoop=1;jettySize=auto;html=1;" parent="1" source="O0Yn0nJ3hVip8s5nAJel-169" target="O0Yn0nJ3hVip8s5nAJel-173" edge="1">
          <mxGeometry relative="1" as="geometry" />
        </mxCell>
        <mxCell id="O0Yn0nJ3hVip8s5nAJel-169" value="cmd가 아직 할당 &lt;br&gt;되어 있는가" style="rhombus;whiteSpace=wrap;html=1;" parent="1" vertex="1">
          <mxGeometry x="1700" y="1260" width="120" height="70" as="geometry" />
        </mxCell>
        <mxCell id="O0Yn0nJ3hVip8s5nAJel-171" value="cmd 할당 해제" style="rounded=0;whiteSpace=wrap;html=1;" parent="1" vertex="1">
          <mxGeometry x="1890" y="1265" width="120" height="60" as="geometry" />
        </mxCell>
        <mxCell id="O0Yn0nJ3hVip8s5nAJel-176" value="" style="edgeStyle=orthogonalEdgeStyle;rounded=0;orthogonalLoop=1;jettySize=auto;html=1;" parent="1" source="O0Yn0nJ3hVip8s5nAJel-173" target="O0Yn0nJ3hVip8s5nAJel-175" edge="1">
          <mxGeometry relative="1" as="geometry" />
        </mxCell>
        <mxCell id="O0Yn0nJ3hVip8s5nAJel-178" value="" style="edgeStyle=orthogonalEdgeStyle;rounded=0;orthogonalLoop=1;jettySize=auto;html=1;" parent="1" source="O0Yn0nJ3hVip8s5nAJel-173" target="O0Yn0nJ3hVip8s5nAJel-177" edge="1">
          <mxGeometry relative="1" as="geometry" />
        </mxCell>
        <mxCell id="O0Yn0nJ3hVip8s5nAJel-173" value="selection tree가 아직 남아 있는가" style="rhombus;whiteSpace=wrap;html=1;" parent="1" vertex="1">
          <mxGeometry x="1700" y="1390" width="120" height="70" as="geometry" />
        </mxCell>
        <mxCell id="O0Yn0nJ3hVip8s5nAJel-175" value="모든 노드 삭제 수행 후 할당 해제" style="rounded=0;whiteSpace=wrap;html=1;" parent="1" vertex="1">
          <mxGeometry x="1890" y="1395" width="120" height="60" as="geometry" />
        </mxCell>
        <mxCell id="O0Yn0nJ3hVip8s5nAJel-180" value="" style="edgeStyle=orthogonalEdgeStyle;rounded=0;orthogonalLoop=1;jettySize=auto;html=1;" parent="1" source="O0Yn0nJ3hVip8s5nAJel-177" target="O0Yn0nJ3hVip8s5nAJel-179" edge="1">
          <mxGeometry relative="1" as="geometry" />
        </mxCell>
        <mxCell id="O0Yn0nJ3hVip8s5nAJel-182" value="" style="edgeStyle=orthogonalEdgeStyle;rounded=0;orthogonalLoop=1;jettySize=auto;html=1;" parent="1" source="O0Yn0nJ3hVip8s5nAJel-177" target="O0Yn0nJ3hVip8s5nAJel-181" edge="1">
          <mxGeometry relative="1" as="geometry" />
        </mxCell>
        <mxCell id="O0Yn0nJ3hVip8s5nAJel-177" value="B+-tree가 아직&lt;br&gt;남아 있는가" style="rhombus;whiteSpace=wrap;html=1;" parent="1" vertex="1">
          <mxGeometry x="1700" y="1520" width="120" height="70" as="geometry" />
        </mxCell>
        <mxCell id="O0Yn0nJ3hVip8s5nAJel-179" value="모든 노드 삭제 수행 후 할당 해제" style="rounded=0;whiteSpace=wrap;html=1;" parent="1" vertex="1">
          <mxGeometry x="1890" y="1525" width="120" height="60" as="geometry" />
        </mxCell>
        <mxCell id="O0Yn0nJ3hVip8s5nAJel-181" value="end" style="strokeWidth=2;html=1;shape=mxgraph.flowchart.terminator;whiteSpace=wrap;" parent="1" vertex="1">
          <mxGeometry x="1710" y="1650" width="100" height="60" as="geometry" />
        </mxCell>
        <mxCell id="O0Yn0nJ3hVip8s5nAJel-183" value="yes" style="edgeStyle=orthogonalEdgeStyle;rounded=0;orthogonalLoop=1;jettySize=auto;html=1;" parent="1" edge="1">
          <mxGeometry relative="1" as="geometry">
            <mxPoint x="1820" y="1424.79" as="sourcePoint" />
            <mxPoint x="1890" y="1424.79" as="targetPoint" />
          </mxGeometry>
        </mxCell>
        <mxCell id="O0Yn0nJ3hVip8s5nAJel-184" value="yes" style="edgeStyle=orthogonalEdgeStyle;rounded=0;orthogonalLoop=1;jettySize=auto;html=1;" parent="1" edge="1">
          <mxGeometry relative="1" as="geometry">
            <mxPoint x="1820" y="1554.79" as="sourcePoint" />
            <mxPoint x="1890" y="1554.79" as="targetPoint" />
          </mxGeometry>
        </mxCell>
        <mxCell id="O0Yn0nJ3hVip8s5nAJel-186" value="no" style="edgeStyle=orthogonalEdgeStyle;rounded=0;orthogonalLoop=1;jettySize=auto;html=1;" parent="1" edge="1">
          <mxGeometry relative="1" as="geometry">
            <mxPoint x="1759.79" y="1330" as="sourcePoint" />
            <mxPoint x="1759.79" y="1390" as="targetPoint" />
          </mxGeometry>
        </mxCell>
        <mxCell id="O0Yn0nJ3hVip8s5nAJel-187" value="no" style="edgeStyle=orthogonalEdgeStyle;rounded=0;orthogonalLoop=1;jettySize=auto;html=1;" parent="1" edge="1">
          <mxGeometry relative="1" as="geometry">
            <mxPoint x="1759.79" y="1460" as="sourcePoint" />
            <mxPoint x="1759.79" y="1520" as="targetPoint" />
          </mxGeometry>
        </mxCell>
        <mxCell id="O0Yn0nJ3hVip8s5nAJel-189" value="no" style="edgeStyle=orthogonalEdgeStyle;rounded=0;orthogonalLoop=1;jettySize=auto;html=1;entryX=0.5;entryY=0;entryDx=0;entryDy=0;entryPerimeter=0;" parent="1" target="O0Yn0nJ3hVip8s5nAJel-181" edge="1">
          <mxGeometry relative="1" as="geometry">
            <mxPoint x="1760" y="1590" as="sourcePoint" />
            <mxPoint x="1759.83" y="1645" as="targetPoint" />
            <Array as="points" />
          </mxGeometry>
        </mxCell>
        <mxCell id="O0Yn0nJ3hVip8s5nAJel-191" style="edgeStyle=orthogonalEdgeStyle;rounded=0;orthogonalLoop=1;jettySize=auto;html=1;endArrow=oval;endFill=1;" parent="1" edge="1">
          <mxGeometry relative="1" as="geometry">
            <mxPoint x="1760" y="1350" as="targetPoint" />
            <mxPoint x="1950" y="1325" as="sourcePoint" />
            <Array as="points">
              <mxPoint x="1950" y="1350" />
            </Array>
          </mxGeometry>
        </mxCell>
        <mxCell id="O0Yn0nJ3hVip8s5nAJel-192" style="edgeStyle=orthogonalEdgeStyle;rounded=0;orthogonalLoop=1;jettySize=auto;html=1;endArrow=oval;endFill=1;" parent="1" edge="1">
          <mxGeometry relative="1" as="geometry">
            <mxPoint x="1760" y="1480" as="targetPoint" />
            <mxPoint x="1950" y="1455" as="sourcePoint" />
            <Array as="points">
              <mxPoint x="1950" y="1480" />
            </Array>
          </mxGeometry>
        </mxCell>
        <mxCell id="O0Yn0nJ3hVip8s5nAJel-193" style="edgeStyle=orthogonalEdgeStyle;rounded=0;orthogonalLoop=1;jettySize=auto;html=1;endArrow=oval;endFill=1;" parent="1" edge="1">
          <mxGeometry relative="1" as="geometry">
            <mxPoint x="1760" y="1610" as="targetPoint" />
            <mxPoint x="1950" y="1585" as="sourcePoint" />
            <Array as="points">
              <mxPoint x="1950" y="1610" />
            </Array>
          </mxGeometry>
        </mxCell>
      </root>
    </mxGraphModel>
  </diagram>
  <diagram id="LECMWtjjpPCiUM4TybML" name="bptree.cpp">
    <mxGraphModel dx="795" dy="1154" grid="1" gridSize="10" guides="1" tooltips="1" connect="1" arrows="1" fold="1" page="1" pageScale="1" pageWidth="1100" pageHeight="850" math="0" shadow="0">
      <root>
        <mxCell id="0" />
        <mxCell id="1" parent="0" />
        <mxCell id="PKiY4ysv5ynNsNhSxneh-4" style="edgeStyle=orthogonalEdgeStyle;rounded=0;orthogonalLoop=1;jettySize=auto;html=1;entryX=0.5;entryY=0;entryDx=0;entryDy=0;" edge="1" parent="1" source="PKiY4ysv5ynNsNhSxneh-1" target="PKiY4ysv5ynNsNhSxneh-5">
          <mxGeometry relative="1" as="geometry">
            <mxPoint x="240" y="119.99999999999989" as="targetPoint" />
          </mxGeometry>
        </mxCell>
        <mxCell id="PKiY4ysv5ynNsNhSxneh-1" value="start" style="strokeWidth=2;html=1;shape=mxgraph.flowchart.terminator;whiteSpace=wrap;" vertex="1" parent="1">
          <mxGeometry x="200" y="30" width="80" height="50" as="geometry" />
        </mxCell>
        <mxCell id="PKiY4ysv5ynNsNhSxneh-7" value="있음" style="edgeStyle=orthogonalEdgeStyle;rounded=0;orthogonalLoop=1;jettySize=auto;html=1;entryX=0.5;entryY=0;entryDx=0;entryDy=0;exitX=0;exitY=0.5;exitDx=0;exitDy=0;" edge="1" parent="1" source="PKiY4ysv5ynNsNhSxneh-5" target="PKiY4ysv5ynNsNhSxneh-6">
          <mxGeometry relative="1" as="geometry">
            <Array as="points">
              <mxPoint x="110" y="155" />
            </Array>
          </mxGeometry>
        </mxCell>
        <mxCell id="PKiY4ysv5ynNsNhSxneh-5" value="해당 데이터의 이름으로 된 것이 data 노드 내에 있는지 확인" style="rhombus;whiteSpace=wrap;html=1;" vertex="1" parent="1">
          <mxGeometry x="150" y="110" width="180" height="90" as="geometry" />
        </mxCell>
        <mxCell id="PKiY4ysv5ynNsNhSxneh-29" style="edgeStyle=orthogonalEdgeStyle;rounded=0;orthogonalLoop=1;jettySize=auto;html=1;endArrow=oval;endFill=1;" edge="1" parent="1" source="PKiY4ysv5ynNsNhSxneh-6">
          <mxGeometry relative="1" as="geometry">
            <mxPoint x="260" y="720" as="targetPoint" />
            <Array as="points">
              <mxPoint x="110" y="720" />
            </Array>
          </mxGeometry>
        </mxCell>
        <mxCell id="PKiY4ysv5ynNsNhSxneh-6" value="data의 loan_count 증가" style="rounded=0;whiteSpace=wrap;html=1;" vertex="1" parent="1">
          <mxGeometry x="40" y="260" width="140" height="40" as="geometry" />
        </mxCell>
        <mxCell id="PKiY4ysv5ynNsNhSxneh-11" value="no" style="edgeStyle=orthogonalEdgeStyle;rounded=0;orthogonalLoop=1;jettySize=auto;html=1;entryX=0.5;entryY=0;entryDx=0;entryDy=0;" edge="1" parent="1" source="PKiY4ysv5ynNsNhSxneh-8" target="PKiY4ysv5ynNsNhSxneh-12">
          <mxGeometry relative="1" as="geometry">
            <mxPoint x="259.9999999999999" y="309.9999999999999" as="targetPoint" />
            <Array as="points">
              <mxPoint x="260" y="230" />
            </Array>
          </mxGeometry>
        </mxCell>
        <mxCell id="PKiY4ysv5ynNsNhSxneh-19" value="yes" style="edgeStyle=orthogonalEdgeStyle;rounded=0;orthogonalLoop=1;jettySize=auto;html=1;entryX=0;entryY=0.5;entryDx=0;entryDy=0;" edge="1" parent="1" source="PKiY4ysv5ynNsNhSxneh-8" target="PKiY4ysv5ynNsNhSxneh-18">
          <mxGeometry relative="1" as="geometry" />
        </mxCell>
        <mxCell id="PKiY4ysv5ynNsNhSxneh-8" value="루트가 있는가" style="rhombus;whiteSpace=wrap;html=1;" vertex="1" parent="1">
          <mxGeometry x="350" y="190" width="80" height="80" as="geometry" />
        </mxCell>
        <mxCell id="PKiY4ysv5ynNsNhSxneh-9" value="없음" style="edgeStyle=orthogonalEdgeStyle;rounded=0;orthogonalLoop=1;jettySize=auto;html=1;entryX=0.488;entryY=-0.051;entryDx=0;entryDy=0;entryPerimeter=0;exitX=1;exitY=0.5;exitDx=0;exitDy=0;" edge="1" parent="1" source="PKiY4ysv5ynNsNhSxneh-5" target="PKiY4ysv5ynNsNhSxneh-8">
          <mxGeometry relative="1" as="geometry">
            <Array as="points">
              <mxPoint x="390" y="155" />
              <mxPoint x="390" y="186" />
            </Array>
          </mxGeometry>
        </mxCell>
        <mxCell id="PKiY4ysv5ynNsNhSxneh-14" value="no" style="edgeStyle=orthogonalEdgeStyle;rounded=0;orthogonalLoop=1;jettySize=auto;html=1;entryX=0.5;entryY=0;entryDx=0;entryDy=0;" edge="1" parent="1" source="PKiY4ysv5ynNsNhSxneh-12" target="PKiY4ysv5ynNsNhSxneh-13">
          <mxGeometry relative="1" as="geometry" />
        </mxCell>
        <mxCell id="PKiY4ysv5ynNsNhSxneh-17" value="yes" style="edgeStyle=orthogonalEdgeStyle;rounded=0;orthogonalLoop=1;jettySize=auto;html=1;entryX=0.5;entryY=0;entryDx=0;entryDy=0;" edge="1" parent="1" source="PKiY4ysv5ynNsNhSxneh-12" target="PKiY4ysv5ynNsNhSxneh-16">
          <mxGeometry relative="1" as="geometry">
            <Array as="points">
              <mxPoint x="340" y="310" />
              <mxPoint x="340" y="480" />
              <mxPoint x="260" y="480" />
            </Array>
            <mxPoint as="offset" />
          </mxGeometry>
        </mxCell>
        <mxCell id="PKiY4ysv5ynNsNhSxneh-12" value="data 노드에 도달했는가" style="rhombus;whiteSpace=wrap;html=1;" vertex="1" parent="1">
          <mxGeometry x="220" y="270" width="80" height="80" as="geometry" />
        </mxCell>
        <mxCell id="PKiY4ysv5ynNsNhSxneh-15" style="edgeStyle=orthogonalEdgeStyle;rounded=0;orthogonalLoop=1;jettySize=auto;html=1;endArrow=oval;endFill=1;" edge="1" parent="1" source="PKiY4ysv5ynNsNhSxneh-13">
          <mxGeometry relative="1" as="geometry">
            <mxPoint x="260" y="230" as="targetPoint" />
            <Array as="points">
              <mxPoint x="190" y="450" />
              <mxPoint x="190" y="230" />
              <mxPoint x="260" y="230" />
            </Array>
          </mxGeometry>
        </mxCell>
        <mxCell id="PKiY4ysv5ynNsNhSxneh-13" value="이름에 따른 ptr 다음 위치 저장" style="rounded=0;whiteSpace=wrap;html=1;" vertex="1" parent="1">
          <mxGeometry x="200" y="380" width="120" height="60" as="geometry" />
        </mxCell>
        <mxCell id="PKiY4ysv5ynNsNhSxneh-21" value="" style="edgeStyle=orthogonalEdgeStyle;rounded=0;orthogonalLoop=1;jettySize=auto;html=1;entryX=0.5;entryY=0;entryDx=0;entryDy=0;" edge="1" parent="1" source="PKiY4ysv5ynNsNhSxneh-16" target="PKiY4ysv5ynNsNhSxneh-22">
          <mxGeometry relative="1" as="geometry">
            <mxPoint x="260" y="610" as="targetPoint" />
          </mxGeometry>
        </mxCell>
        <mxCell id="PKiY4ysv5ynNsNhSxneh-16" value="ptr에 데이터 삽입" style="rounded=0;whiteSpace=wrap;html=1;" vertex="1" parent="1">
          <mxGeometry x="200" y="510" width="120" height="60" as="geometry" />
        </mxCell>
        <mxCell id="PKiY4ysv5ynNsNhSxneh-25" style="edgeStyle=orthogonalEdgeStyle;rounded=0;orthogonalLoop=1;jettySize=auto;html=1;endArrow=oval;endFill=1;" edge="1" parent="1" source="PKiY4ysv5ynNsNhSxneh-18">
          <mxGeometry relative="1" as="geometry">
            <mxPoint x="260" y="720" as="targetPoint" />
            <Array as="points">
              <mxPoint x="540" y="720" />
              <mxPoint x="260" y="720" />
            </Array>
          </mxGeometry>
        </mxCell>
        <mxCell id="PKiY4ysv5ynNsNhSxneh-18" value="root에 데이터 삽입" style="rounded=0;whiteSpace=wrap;html=1;" vertex="1" parent="1">
          <mxGeometry x="480" y="200" width="120" height="60" as="geometry" />
        </mxCell>
        <mxCell id="PKiY4ysv5ynNsNhSxneh-27" value="no" style="edgeStyle=orthogonalEdgeStyle;rounded=0;orthogonalLoop=1;jettySize=auto;html=1;" edge="1" parent="1" source="PKiY4ysv5ynNsNhSxneh-22" target="PKiY4ysv5ynNsNhSxneh-26">
          <mxGeometry relative="1" as="geometry" />
        </mxCell>
        <mxCell id="PKiY4ysv5ynNsNhSxneh-22" value="split을 해야 하는가" style="rhombus;whiteSpace=wrap;html=1;" vertex="1" parent="1">
          <mxGeometry x="195" y="610" width="130" height="70" as="geometry" />
        </mxCell>
        <mxCell id="PKiY4ysv5ynNsNhSxneh-23" value="end" style="strokeWidth=2;html=1;shape=mxgraph.flowchart.terminator;whiteSpace=wrap;" vertex="1" parent="1">
          <mxGeometry x="210" y="740" width="100" height="60" as="geometry" />
        </mxCell>
        <mxCell id="PKiY4ysv5ynNsNhSxneh-24" value="yes" style="edgeStyle=orthogonalEdgeStyle;rounded=0;orthogonalLoop=1;jettySize=auto;html=1;entryX=0.5;entryY=0;entryDx=0;entryDy=0;entryPerimeter=0;" edge="1" parent="1" source="PKiY4ysv5ynNsNhSxneh-22" target="PKiY4ysv5ynNsNhSxneh-23">
          <mxGeometry x="-0.3333" relative="1" as="geometry">
            <Array as="points">
              <mxPoint x="260" y="710" />
              <mxPoint x="260" y="710" />
            </Array>
            <mxPoint as="offset" />
          </mxGeometry>
        </mxCell>
        <mxCell id="PKiY4ysv5ynNsNhSxneh-28" style="edgeStyle=orthogonalEdgeStyle;rounded=0;orthogonalLoop=1;jettySize=auto;html=1;endArrow=oval;endFill=1;" edge="1" parent="1" source="PKiY4ysv5ynNsNhSxneh-26">
          <mxGeometry relative="1" as="geometry">
            <mxPoint x="420" y="720" as="targetPoint" />
          </mxGeometry>
        </mxCell>
        <mxCell id="PKiY4ysv5ynNsNhSxneh-26" value="split함수 실행" style="rounded=0;whiteSpace=wrap;html=1;" vertex="1" parent="1">
          <mxGeometry x="360" y="615" width="120" height="60" as="geometry" />
        </mxCell>
      </root>
    </mxGraphModel>
  </diagram>
</mxfile>
